<?xml version="1.0" standalone="no"?>
<!DOCTYPE svg PUBLIC "-//W3C//DTD SVG 20010904//EN"
 "http://www.w3.org/TR/2001/REC-SVG-20010904/DTD/svg10.dtd">
<svg version="1.0" xmlns="http://www.w3.org/2000/svg"
 width="1022.000000pt" height="1022.000000pt" viewBox="0 0 1022.000000 1022.000000"
 preserveAspectRatio="xMidYMid meet">
<metadata>
Created by potrace 1.11, written by Peter Selinger 2001-2013
</metadata>
<g transform="translate(0.000000,1022.000000) scale(0.100000,-0.100000)"
fill="#000000" stroke="none">
<path d="M10 5110 l0 -5110 5100 0 5100 0 0 5110 0 5110 -5100 0 -5100 0 0
-5110z m5134 3773 c8 -16 24 -47 35 -70 12 -23 25 -44 31 -48 5 -3 23 -35 40
-70 17 -35 35 -67 40 -70 6 -4 19 -25 29 -48 11 -23 30 -58 43 -77 13 -19 31
-52 41 -72 10 -20 22 -40 27 -43 5 -3 23 -35 40 -70 17 -35 35 -67 40 -70 6
-4 19 -25 29 -48 11 -23 30 -58 43 -77 13 -19 32 -51 41 -70 10 -19 27 -48 37
-65 11 -16 28 -49 40 -72 11 -23 24 -44 30 -48 5 -3 23 -35 40 -70 17 -35 35
-67 40 -70 6 -4 19 -25 29 -48 11 -23 30 -58 43 -77 13 -19 32 -51 41 -70 10
-19 27 -48 37 -65 11 -16 28 -49 40 -72 11 -23 24 -44 30 -48 5 -3 23 -35 40
-70 17 -35 35 -67 40 -70 6 -4 19 -25 29 -48 11 -23 30 -58 43 -77 13 -19 31
-52 41 -72 10 -20 22 -40 27 -43 5 -3 23 -35 40 -70 17 -35 35 -67 40 -70 5
-3 23 -35 40 -70 17 -35 35 -67 40 -70 6 -4 19 -25 29 -48 11 -23 30 -58 43
-77 13 -19 31 -52 41 -72 10 -20 22 -40 27 -43 5 -3 23 -35 40 -70 17 -35 35
-67 40 -70 6 -4 19 -25 29 -48 11 -23 30 -58 43 -77 13 -19 32 -51 41 -70 10
-19 27 -48 37 -65 11 -16 28 -49 40 -72 11 -23 24 -44 30 -48 5 -3 23 -35 40
-70 17 -35 35 -67 40 -70 6 -4 19 -25 29 -48 11 -23 30 -58 43 -77 13 -19 32
-51 41 -70 10 -19 27 -48 37 -65 11 -16 28 -49 40 -72 11 -23 24 -44 30 -48 5
-3 23 -35 40 -70 17 -35 35 -67 40 -70 6 -4 19 -25 29 -48 11 -23 30 -58 43
-77 13 -19 31 -52 41 -72 10 -20 22 -40 27 -43 5 -3 23 -35 40 -70 17 -35 35
-67 40 -70 5 -3 23 -35 40 -70 17 -35 35 -67 40 -70 6 -4 19 -25 30 -48 12
-23 29 -55 40 -72 11 -16 28 -49 40 -72 11 -23 24 -44 30 -48 5 -3 23 -35 40
-70 17 -35 35 -67 40 -70 6 -4 19 -25 29 -48 11 -23 30 -58 43 -77 13 -19 32
-51 41 -70 10 -19 27 -48 37 -65 11 -16 28 -49 40 -72 11 -23 24 -44 30 -48 5
-3 23 -35 40 -70 17 -35 35 -67 40 -70 6 -4 19 -25 29 -48 11 -23 30 -58 43
-77 13 -19 32 -51 41 -70 10 -19 27 -48 37 -65 11 -16 28 -49 40 -72 11 -23
24 -44 30 -48 5 -3 23 -35 40 -70 17 -35 35 -67 40 -70 6 -4 19 -25 29 -48 11
-23 30 -58 43 -77 13 -19 31 -52 41 -72 10 -20 22 -40 27 -43 5 -3 23 -35 40
-70 17 -35 35 -67 40 -70 6 -4 19 -25 29 -48 11 -23 30 -58 43 -77 13 -19 32
-51 41 -70 10 -19 27 -48 37 -65 11 -16 28 -49 40 -72 11 -23 24 -44 30 -48 5
-3 23 -35 40 -70 17 -35 35 -67 40 -70 6 -4 19 -25 29 -48 11 -23 30 -58 43
-77 13 -19 32 -51 41 -70 10 -19 27 -48 37 -65 11 -16 28 -49 40 -72 11 -23
24 -44 30 -48 5 -3 23 -35 40 -70 17 -35 35 -67 40 -70 6 -4 19 -25 29 -48 11
-23 30 -58 43 -77 13 -19 32 -51 41 -70 10 -19 27 -48 37 -65 11 -16 28 -49
40 -72 11 -23 24 -44 29 -48 11 -6 41 -63 41 -77 0 -4 -1944 -8 -4320 -8
-3449 0 -4320 3 -4320 13 0 6 9 23 20 37 11 14 20 29 20 33 0 5 13 27 28 50
15 23 34 56 42 72 8 17 26 48 40 70 14 22 32 54 40 70 8 17 17 32 20 35 3 3
11 16 18 29 21 37 50 87 72 126 11 19 30 52 41 73 12 20 29 48 38 62 9 14 23
39 31 55 8 17 26 48 40 70 14 22 32 54 40 70 8 17 17 32 20 35 5 5 10 13 52
89 11 20 28 47 37 61 9 14 23 39 31 55 8 17 26 48 40 70 14 22 32 54 40 70 8
17 17 32 20 35 3 3 11 16 18 29 21 37 50 87 72 126 11 19 30 52 41 72 12 21
29 49 38 63 9 14 23 39 31 55 8 17 26 48 40 70 14 22 32 54 40 70 8 17 17 32
20 35 3 3 11 16 18 29 21 37 50 87 72 126 11 19 30 52 41 72 12 21 29 49 38
63 9 14 23 39 31 55 8 17 26 48 40 70 14 22 32 54 40 70 8 17 17 32 20 35 5 5
10 13 52 89 11 20 28 47 37 61 9 14 23 39 31 55 8 17 26 48 40 70 14 22 32 54
40 70 8 17 26 48 40 70 14 22 32 54 40 70 8 17 17 32 20 35 5 5 10 13 52 89
11 20 28 47 37 61 9 14 23 39 31 55 8 17 26 48 40 70 14 22 32 54 40 70 8 17
17 32 20 35 3 3 11 16 18 29 21 37 50 87 72 126 11 19 30 52 41 73 12 20 29
48 38 62 9 14 23 39 31 55 8 17 26 48 40 70 14 22 32 54 40 70 8 17 17 32 20
35 3 3 11 16 18 29 21 37 50 87 72 126 11 19 30 52 41 73 12 20 29 48 38 62 9
14 23 39 31 55 8 17 26 48 40 70 14 22 32 54 40 70 8 17 17 32 20 35 5 5 10
13 52 89 11 20 28 47 37 61 9 14 23 39 31 55 8 17 26 48 40 70 14 22 32 54 40
70 8 17 17 32 20 35 3 3 11 16 18 29 21 37 50 87 72 126 11 19 30 52 41 73 12
20 29 48 38 62 9 14 23 39 31 55 8 17 26 48 40 70 14 22 32 54 40 70 8 17 17
32 20 35 3 3 11 16 18 29 21 37 50 87 72 126 11 19 30 52 41 73 12 20 29 48
38 62 9 14 23 39 31 55 8 17 26 48 40 70 14 22 32 54 40 70 8 17 17 32 20 35
3 3 11 16 18 29 21 37 50 87 72 126 11 19 30 52 41 73 12 20 29 48 38 62 9 14
23 39 31 55 8 17 26 48 40 70 14 22 32 54 40 70 8 17 17 32 20 35 5 5 10 13
52 89 11 20 28 47 37 61 9 14 23 39 31 55 8 17 26 48 40 70 14 22 32 54 40 70
8 17 17 32 20 35 3 3 11 16 18 29 21 37 50 87 72 126 11 19 30 52 41 73 12 20
29 48 38 62 9 14 23 39 31 55 8 17 26 48 40 70 14 22 32 54 40 70 8 17 17 32
20 35 3 3 11 16 18 29 21 37 50 87 72 126 11 19 30 52 41 73 12 20 29 48 38
62 9 14 23 37 31 53 7 15 21 27 31 27 10 0 25 -12 33 -27z"/>
<path d="M5080 8835 c-8 -19 -17 -35 -21 -35 -4 0 -9 -8 -12 -17 -4 -10 -18
-38 -33 -63 -27 -46 -47 -80 -85 -147 -12 -21 -29 -49 -38 -63 -9 -14 -23 -38
-31 -55 -8 -16 -26 -48 -40 -70 -14 -22 -32 -53 -40 -70 -8 -16 -17 -32 -20
-35 -5 -5 -10 -13 -52 -89 -11 -20 -28 -47 -37 -61 -9 -14 -23 -38 -31 -55 -8
-16 -26 -48 -40 -70 -14 -22 -32 -53 -40 -70 -8 -16 -22 -41 -31 -55 -9 -14
-26 -42 -38 -62 -11 -21 -30 -54 -41 -73 -11 -19 -30 -52 -41 -72 -12 -21 -29
-49 -38 -63 -9 -14 -23 -38 -31 -55 -8 -16 -26 -48 -40 -70 -14 -22 -32 -53
-40 -70 -8 -16 -17 -32 -20 -35 -3 -3 -11 -16 -18 -29 -21 -37 -50 -87 -72
-126 -11 -19 -30 -52 -41 -72 -12 -21 -29 -49 -38 -63 -9 -14 -23 -38 -31 -55
-8 -16 -26 -48 -40 -70 -14 -22 -32 -53 -40 -70 -8 -16 -17 -32 -20 -35 -3 -3
-11 -16 -18 -29 -21 -37 -50 -87 -72 -126 -11 -19 -30 -52 -41 -72 -12 -21
-29 -49 -38 -63 -9 -14 -23 -38 -31 -55 -8 -16 -26 -48 -40 -70 -14 -22 -32
-53 -40 -70 -8 -16 -17 -32 -20 -35 -5 -5 -10 -13 -52 -89 -11 -20 -28 -47
-37 -61 -9 -14 -23 -38 -31 -55 -8 -16 -26 -48 -40 -70 -14 -22 -32 -53 -40
-70 -8 -16 -17 -32 -20 -35 -3 -3 -11 -16 -18 -29 -21 -37 -50 -87 -72 -126
-11 -19 -30 -52 -41 -72 -12 -21 -29 -49 -38 -63 -9 -14 -23 -38 -31 -55 -8
-16 -26 -48 -40 -70 -14 -22 -32 -53 -40 -70 -8 -16 -17 -32 -20 -35 -3 -3
-11 -16 -18 -29 -21 -37 -50 -87 -72 -126 -11 -19 -30 -52 -41 -72 -12 -21
-29 -49 -38 -63 -9 -14 -23 -38 -31 -55 -8 -16 -26 -48 -40 -70 -14 -22 -32
-53 -40 -70 -8 -16 -17 -32 -20 -35 -3 -3 -11 -16 -18 -29 -21 -37 -50 -87
-72 -126 -11 -19 -30 -52 -41 -72 -12 -21 -29 -49 -38 -63 -9 -14 -23 -38 -31
-55 -8 -16 -26 -48 -40 -70 -14 -22 -32 -53 -40 -70 -8 -16 -17 -32 -20 -35
-5 -5 -10 -13 -52 -89 -11 -20 -28 -47 -37 -61 -9 -14 -23 -38 -31 -55 -8 -16
-26 -48 -40 -70 -14 -22 -32 -53 -40 -70 -8 -16 -17 -32 -20 -35 -3 -3 -11
-16 -18 -29 -21 -37 -50 -87 -72 -126 -11 -19 -30 -52 -41 -72 -12 -21 -29
-49 -38 -63 -9 -14 -23 -38 -31 -55 -8 -16 -26 -48 -40 -70 -14 -22 -32 -53
-40 -70 -8 -16 -17 -32 -20 -35 -3 -3 -11 -16 -18 -29 -21 -37 -50 -87 -72
-126 -11 -19 -30 -52 -41 -73 -12 -20 -29 -48 -38 -62 -9 -14 -23 -38 -31 -55
-8 -16 -26 -48 -40 -70 -14 -22 -32 -53 -40 -70 -8 -16 -17 -32 -20 -35 -5 -5
-10 -13 -52 -89 -11 -20 -28 -47 -37 -61 -9 -14 -23 -38 -31 -55 -8 -16 -26
-48 -40 -70 -14 -22 -32 -53 -40 -70 -8 -16 -22 -41 -31 -55 -9 -14 -26 -42
-38 -63 -11 -20 -30 -53 -41 -72 -11 -19 -30 -52 -41 -72 -12 -21 -29 -49 -38
-63 -9 -14 -23 -38 -31 -55 -8 -16 -26 -48 -40 -70 -14 -22 -32 -53 -40 -70
-8 -16 -17 -32 -20 -35 -3 -3 -11 -16 -18 -29 -21 -37 -50 -87 -72 -126 -11
-19 -30 -52 -41 -72 -12 -21 -29 -49 -38 -63 -9 -14 -23 -38 -31 -55 -8 -16
-26 -48 -41 -70 -14 -22 -32 -55 -40 -72 -8 -18 -17 -33 -21 -33 -5 0 -8 -6
-8 -12 0 -7 -9 -24 -20 -38 -11 -14 -20 -31 -20 -37 0 -10 863 -13 4280 -13
2354 0 4280 2 4280 4 0 8 -72 141 -84 156 -7 8 -20 32 -30 52 -9 20 -21 40
-26 43 -5 3 -23 35 -40 70 -17 35 -35 67 -40 70 -5 3 -23 35 -40 70 -17 35
-35 67 -40 70 -6 4 -19 25 -30 48 -12 23 -29 56 -40 72 -11 17 -28 49 -40 72
-11 23 -24 44 -30 48 -5 3 -23 35 -40 70 -17 35 -35 67 -40 70 -6 4 -19 25
-29 48 -11 23 -30 58 -43 77 -13 19 -32 51 -41 70 -10 19 -27 49 -37 65 -11
17 -28 49 -40 72 -11 23 -24 44 -30 48 -5 3 -23 35 -40 70 -17 35 -35 67 -40
70 -6 4 -19 25 -29 48 -11 23 -30 58 -43 77 -13 19 -32 51 -41 70 -10 19 -27
49 -37 65 -11 17 -28 49 -40 72 -11 23 -24 44 -30 48 -5 3 -23 35 -40 70 -17
35 -35 67 -40 70 -6 4 -19 25 -29 48 -11 23 -30 58 -43 77 -13 19 -31 52 -41
72 -10 20 -22 40 -27 43 -5 3 -23 35 -40 70 -17 35 -35 67 -40 70 -6 4 -19 25
-29 48 -11 23 -30 58 -43 77 -13 19 -32 51 -41 70 -10 19 -27 49 -37 65 -11
17 -28 49 -40 72 -11 23 -24 44 -30 48 -5 3 -23 35 -40 70 -17 35 -35 67 -40
70 -6 4 -19 25 -29 48 -11 23 -30 58 -43 77 -13 19 -32 51 -41 70 -10 19 -27
49 -37 65 -11 17 -28 49 -40 72 -11 23 -24 44 -30 48 -5 3 -23 35 -40 70 -17
35 -35 67 -40 70 -6 4 -19 25 -29 48 -11 23 -30 58 -43 77 -13 19 -32 51 -41
70 -10 19 -27 49 -37 65 -11 17 -28 49 -40 72 -11 23 -24 44 -30 48 -5 3 -23
35 -40 70 -17 35 -35 67 -40 70 -6 4 -19 25 -29 48 -11 23 -30 58 -43 77 -13
19 -31 52 -41 72 -10 20 -22 40 -27 43 -5 3 -23 35 -40 70 -17 35 -35 67 -40
70 -6 4 -19 25 -29 48 -11 23 -30 58 -43 77 -13 19 -32 51 -41 70 -10 19 -27
49 -37 65 -11 17 -28 49 -40 72 -11 23 -24 44 -30 48 -5 3 -23 35 -40 70 -17
35 -35 67 -40 70 -6 4 -19 25 -29 48 -11 23 -30 58 -43 77 -13 19 -32 51 -41
70 -10 19 -27 49 -37 65 -11 17 -28 49 -40 72 -11 23 -24 44 -30 48 -5 3 -23
35 -40 70 -17 35 -35 67 -40 70 -6 4 -19 25 -29 48 -11 23 -30 58 -43 77 -13
19 -31 52 -41 72 -10 20 -22 40 -27 43 -5 3 -23 35 -40 70 -17 35 -35 67 -40
70 -5 3 -23 35 -40 70 -17 35 -35 67 -40 70 -6 4 -19 25 -29 48 -11 23 -30 58
-43 77 -13 19 -31 52 -41 72 -10 20 -22 40 -27 43 -5 3 -23 35 -40 70 -17 35
-35 67 -40 70 -6 4 -19 25 -29 48 -11 23 -30 58 -43 77 -13 19 -32 51 -41 70
-10 19 -27 49 -37 65 -11 17 -28 49 -40 72 -11 23 -24 44 -30 48 -5 3 -23 35
-40 70 -17 35 -35 67 -40 70 -6 4 -19 25 -29 48 -11 23 -30 58 -43 77 -13 19
-32 51 -41 70 -10 19 -27 49 -37 65 -11 17 -28 49 -40 72 -11 23 -24 44 -30
48 -5 3 -23 35 -40 70 -17 35 -35 67 -40 70 -5 3 -17 23 -27 43 -29 62 -63
112 -76 112 -7 0 -19 -16 -27 -35z m20 -219 c11 -25 24 -48 30 -51 6 -3 19
-26 30 -50 11 -24 24 -47 30 -50 6 -3 19 -26 30 -50 11 -24 24 -47 30 -50 6
-3 19 -26 30 -50 11 -24 24 -47 30 -50 6 -3 19 -26 30 -50 11 -24 24 -47 30
-50 6 -3 19 -26 30 -50 11 -24 24 -47 30 -50 6 -3 19 -26 30 -50 11 -24 24
-47 30 -50 6 -3 19 -26 30 -50 11 -24 24 -47 30 -50 6 -3 19 -26 30 -50 11
-24 24 -47 30 -50 6 -3 19 -26 30 -50 11 -24 24 -47 30 -50 6 -3 19 -26 30
-50 11 -24 24 -47 30 -50 6 -3 19 -25 29 -48 11 -23 31 -59 45 -80 14 -21 26
-40 26 -43 0 -4 14 -26 30 -51 17 -24 30 -46 30 -50 0 -3 14 -25 30 -50 17
-24 30 -46 30 -50 0 -3 13 -24 28 -47 15 -22 35 -58 45 -78 10 -20 22 -40 27
-43 6 -3 19 -26 30 -50 11 -24 24 -47 30 -50 6 -3 19 -26 30 -50 11 -24 24
-47 30 -50 6 -3 19 -26 30 -50 11 -24 24 -47 30 -50 6 -3 19 -26 30 -50 11
-24 24 -47 30 -50 6 -3 19 -26 30 -50 11 -24 24 -47 30 -50 6 -3 19 -26 30
-50 11 -24 24 -47 30 -50 6 -3 19 -26 30 -50 11 -24 24 -47 30 -50 6 -3 19
-26 30 -50 11 -24 24 -47 30 -50 6 -3 19 -26 30 -50 11 -24 24 -47 30 -50 6
-3 19 -26 30 -50 11 -24 24 -47 30 -50 6 -3 19 -26 30 -50 11 -24 24 -47 30
-50 6 -3 19 -26 30 -50 11 -24 24 -47 30 -50 6 -3 19 -26 30 -50 11 -24 24
-47 30 -50 6 -3 19 -25 29 -48 11 -23 31 -59 45 -80 14 -21 26 -40 26 -43 0
-4 14 -26 30 -51 17 -24 30 -46 30 -50 0 -3 14 -25 30 -50 17 -24 30 -46 30
-50 0 -3 13 -24 28 -47 15 -22 35 -58 45 -78 10 -20 22 -40 27 -43 6 -3 19
-26 30 -50 11 -24 24 -47 30 -50 6 -3 19 -26 30 -50 11 -24 24 -47 30 -50 6
-3 19 -26 30 -50 11 -24 24 -47 30 -50 6 -3 19 -26 30 -50 11 -24 24 -47 30
-50 6 -3 19 -26 30 -50 11 -24 24 -47 30 -50 6 -3 19 -26 30 -50 11 -24 24
-47 30 -50 6 -3 19 -26 30 -50 11 -24 24 -47 30 -50 6 -3 19 -26 30 -50 11
-24 24 -47 30 -50 6 -3 19 -26 30 -50 11 -24 24 -47 30 -50 6 -3 19 -26 30
-50 11 -24 24 -47 30 -50 6 -3 19 -26 30 -50 11 -24 24 -47 30 -50 6 -3 19
-26 30 -50 11 -24 24 -47 30 -50 6 -3 19 -26 30 -50 11 -24 24 -47 30 -50 6
-3 19 -25 29 -48 11 -23 31 -59 45 -80 14 -21 26 -40 26 -43 0 -4 14 -26 30
-51 17 -24 30 -46 30 -50 0 -3 14 -25 30 -50 17 -24 30 -46 30 -50 0 -3 13
-24 28 -47 15 -22 35 -58 45 -78 10 -20 22 -40 27 -43 6 -3 19 -26 30 -50 11
-24 24 -47 30 -50 6 -3 19 -26 30 -50 11 -24 24 -47 30 -50 6 -3 19 -26 30
-50 11 -24 24 -47 30 -50 6 -3 19 -26 30 -50 11 -24 24 -47 30 -50 6 -3 19
-26 30 -50 11 -24 24 -47 30 -50 6 -3 19 -26 30 -50 11 -24 24 -47 30 -50 6
-3 19 -26 30 -50 11 -24 24 -47 30 -50 6 -3 19 -26 30 -50 11 -24 24 -47 30
-50 6 -3 19 -26 30 -50 11 -24 24 -47 30 -50 6 -3 19 -26 30 -50 11 -24 24
-47 30 -50 6 -3 19 -26 30 -50 11 -24 24 -47 30 -50 6 -3 19 -26 30 -50 11
-24 24 -47 30 -50 6 -3 19 -26 30 -50 11 -24 24 -47 30 -50 6 -3 19 -25 29
-48 11 -23 31 -59 45 -80 14 -21 26 -40 26 -43 0 -4 14 -26 30 -51 38 -56 38
-71 -2 -77 -18 -3 -292 -8 -608 -11 -316 -3 -854 -10 -1195 -15 -341 -5 -928
-14 -1305 -19 -377 -6 -791 -13 -920 -16 -129 -3 -424 -8 -655 -10 -231 -3
-703 -10 -1050 -15 -346 -5 -949 -14 -1340 -19 -390 -5 -763 -13 -827 -17
-138 -8 -148 -2 -101 68 16 24 40 66 53 93 14 28 27 52 30 55 8 8 38 62 67
120 15 30 30 57 33 60 6 6 23 36 60 105 15 28 37 68 50 90 13 22 35 63 50 90
15 28 37 68 50 90 13 22 35 63 50 90 15 28 37 68 50 90 13 22 36 64 51 93 16
30 37 66 47 80 10 15 29 50 42 77 13 28 36 68 50 90 14 22 37 63 50 90 13 28
36 68 50 90 14 22 37 63 50 90 14 28 27 52 30 55 8 8 38 62 67 120 15 30 30
57 33 60 6 6 23 36 60 105 15 28 37 68 50 90 13 22 35 63 50 90 15 28 37 68
50 90 13 22 35 63 50 90 15 28 37 68 50 90 13 22 36 64 51 93 16 30 37 66 47
80 10 15 29 50 42 77 13 28 36 68 50 90 14 22 37 63 50 90 14 28 27 52 30 55
8 8 38 62 67 120 15 30 30 57 33 60 6 6 23 36 60 105 15 28 37 68 50 90 13 22
35 63 50 90 15 28 37 68 50 90 13 22 35 63 50 90 15 28 37 68 50 90 13 22 35
63 50 90 15 28 37 68 50 90 13 22 36 64 51 93 16 30 37 66 47 80 10 15 29 50
42 77 13 28 36 68 50 90 14 22 37 63 50 90 14 28 27 52 30 55 8 8 38 62 67
120 15 30 30 57 33 60 6 6 23 36 60 105 15 28 37 68 50 90 13 22 35 63 50 90
15 28 37 68 50 90 13 22 35 63 50 90 15 28 37 68 50 90 13 22 36 64 51 93 16
30 37 66 47 80 10 15 29 50 42 77 13 28 36 68 50 90 14 22 37 63 50 90 13 28
36 68 50 90 14 22 37 63 50 90 14 28 27 52 30 55 8 8 38 62 67 120 15 30 30
57 33 60 6 6 23 36 60 105 15 28 37 68 50 90 13 22 35 63 50 90 15 28 37 68
50 90 13 22 35 63 50 90 15 28 37 68 50 90 13 22 36 64 51 93 16 30 37 66 47
80 10 15 29 50 42 77 13 28 36 68 50 90 14 22 37 63 50 90 14 28 27 52 30 55
9 9 40 65 68 122 35 75 62 79 92 14z"/>
<path d="M5033 8593 c-10 -15 -25 -41 -33 -58 -8 -16 -26 -48 -40 -70 -14 -22
-37 -62 -50 -90 -13 -27 -36 -68 -50 -90 -14 -22 -37 -62 -50 -90 -13 -27 -36
-68 -50 -90 -14 -22 -37 -62 -50 -90 -14 -27 -27 -52 -30 -55 -8 -8 -38 -62
-67 -120 -15 -30 -30 -57 -33 -60 -6 -6 -23 -36 -60 -105 -15 -27 -37 -68 -50
-90 -13 -22 -35 -62 -50 -90 -15 -27 -37 -68 -50 -90 -13 -22 -35 -62 -50 -90
-15 -27 -37 -68 -50 -90 -13 -22 -36 -64 -51 -93 -16 -30 -37 -66 -47 -80 -10
-15 -29 -49 -42 -77 -13 -27 -36 -68 -50 -90 -14 -22 -37 -62 -50 -90 -14 -27
-27 -52 -30 -55 -8 -8 -38 -62 -67 -120 -15 -30 -30 -57 -33 -60 -6 -6 -23
-36 -60 -105 -15 -27 -37 -68 -50 -90 -13 -22 -35 -62 -50 -90 -15 -27 -37
-68 -50 -90 -13 -22 -35 -62 -50 -90 -15 -27 -37 -68 -50 -90 -13 -22 -35 -62
-50 -90 -15 -27 -37 -68 -50 -90 -13 -22 -36 -64 -51 -93 -16 -30 -37 -66 -47
-80 -10 -15 -29 -49 -42 -77 -13 -27 -36 -68 -50 -90 -14 -22 -37 -62 -50 -90
-14 -27 -27 -52 -30 -55 -8 -8 -38 -62 -67 -120 -15 -30 -30 -57 -33 -60 -6
-6 -23 -36 -60 -105 -15 -27 -37 -68 -50 -90 -13 -22 -35 -62 -50 -90 -15 -27
-37 -68 -50 -90 -13 -22 -35 -62 -50 -90 -15 -27 -37 -68 -50 -90 -13 -22 -36
-64 -51 -93 -16 -30 -37 -66 -47 -80 -10 -15 -29 -49 -42 -77 -13 -27 -36 -68
-50 -90 -14 -22 -37 -62 -50 -90 -13 -27 -36 -68 -50 -90 -14 -22 -37 -62 -50
-90 -14 -27 -27 -52 -30 -55 -8 -8 -38 -62 -67 -120 -15 -30 -30 -57 -33 -60
-6 -6 -23 -36 -60 -105 -15 -27 -37 -68 -50 -90 -13 -22 -35 -62 -50 -90 -15
-27 -37 -68 -50 -90 -13 -22 -35 -62 -50 -90 -15 -27 -37 -68 -50 -90 -13 -22
-36 -64 -51 -93 -16 -30 -37 -66 -47 -80 -10 -15 -29 -49 -42 -77 -13 -27 -36
-68 -50 -90 -14 -22 -37 -62 -50 -90 -14 -27 -27 -52 -30 -55 -8 -8 -38 -62
-67 -120 -15 -30 -30 -57 -33 -60 -6 -6 -23 -36 -60 -105 -15 -27 -37 -68 -50
-90 -13 -22 -35 -62 -50 -90 -15 -27 -37 -68 -50 -90 -13 -22 -35 -62 -50 -90
-15 -27 -37 -68 -50 -90 -13 -22 -35 -62 -50 -90 -15 -27 -37 -68 -50 -90 -45
-78 -79 -150 -72 -157 4 -3 120 -2 257 2 138 5 421 9 630 10 209 0 531 4 715
10 184 5 551 12 815 15 557 6 1342 18 3735 55 349 6 900 13 1223 16 454 5 590
9 593 19 5 12 -37 96 -62 126 -8 8 -14 19 -14 23 0 5 -13 27 -28 50 -15 22
-35 58 -45 78 -10 20 -22 40 -27 43 -6 3 -19 26 -30 50 -11 24 -24 47 -30 50
-6 3 -19 26 -30 50 -11 24 -24 47 -30 50 -6 3 -19 26 -30 50 -11 24 -24 47
-30 50 -6 3 -19 26 -30 50 -11 24 -24 47 -30 50 -6 3 -19 26 -30 50 -11 24
-24 47 -30 50 -6 3 -19 26 -30 50 -11 24 -24 47 -30 50 -6 3 -19 26 -30 50
-11 24 -24 47 -30 50 -6 3 -19 26 -30 50 -11 24 -24 47 -30 50 -6 3 -19 26
-30 50 -11 24 -24 47 -30 50 -6 3 -19 26 -30 50 -11 24 -24 47 -30 50 -6 3
-19 26 -30 50 -11 24 -24 47 -30 50 -6 3 -19 26 -30 50 -11 24 -24 47 -30 50
-6 3 -19 25 -29 48 -11 23 -31 59 -45 80 -14 21 -26 40 -26 43 0 4 -13 26 -30
51 -16 24 -30 46 -30 50 0 3 -13 25 -30 50 -16 24 -30 46 -30 50 0 3 -13 25
-30 50 -16 24 -30 46 -30 50 0 3 -13 24 -28 47 -15 22 -35 58 -45 78 -10 20
-22 40 -27 43 -6 3 -19 26 -30 50 -11 24 -24 47 -30 50 -6 3 -19 26 -30 50
-11 24 -24 47 -30 50 -6 3 -19 26 -30 50 -11 24 -24 47 -30 50 -6 3 -19 26
-30 50 -11 24 -24 47 -30 50 -6 3 -19 26 -30 50 -11 24 -24 47 -30 50 -6 3
-19 26 -30 50 -11 24 -24 47 -30 50 -6 3 -19 26 -30 50 -11 24 -24 47 -30 50
-6 3 -19 26 -30 50 -11 24 -24 47 -30 50 -6 3 -19 26 -30 50 -11 24 -24 47
-30 50 -6 3 -19 26 -30 50 -11 24 -24 47 -30 50 -6 3 -19 26 -30 50 -11 24
-24 47 -30 50 -6 3 -19 26 -30 50 -11 24 -24 47 -30 50 -6 3 -19 25 -29 48
-11 23 -31 59 -45 80 -14 21 -26 40 -26 43 0 4 -13 26 -30 51 -16 24 -30 46
-30 50 0 3 -13 25 -30 50 -16 24 -30 46 -30 50 0 3 -13 25 -30 50 -16 24 -30
46 -30 50 0 3 -13 24 -28 47 -15 22 -35 58 -45 78 -10 20 -22 40 -27 43 -6 3
-19 26 -30 50 -11 24 -24 47 -30 50 -6 3 -19 26 -30 50 -11 24 -24 47 -30 50
-6 3 -19 26 -30 50 -11 24 -24 47 -30 50 -6 3 -19 26 -30 50 -11 24 -24 47
-30 50 -6 3 -19 26 -30 50 -11 24 -24 47 -30 50 -6 3 -19 26 -30 50 -11 24
-24 47 -30 50 -6 3 -19 26 -30 50 -11 24 -24 47 -30 50 -6 3 -19 26 -30 50
-11 24 -24 47 -30 50 -6 3 -19 26 -30 50 -11 24 -24 47 -30 50 -6 3 -19 26
-30 50 -11 24 -24 47 -30 50 -6 3 -19 26 -30 50 -11 24 -24 47 -30 50 -6 3
-19 26 -30 50 -11 24 -24 47 -30 50 -6 3 -19 25 -29 48 -11 23 -31 59 -45 80
-14 21 -26 40 -26 43 0 4 -13 26 -30 51 -16 24 -30 46 -30 50 0 3 -13 25 -30
50 -16 24 -30 46 -30 50 0 3 -13 25 -30 50 -16 24 -30 46 -30 50 0 3 -13 24
-28 47 -15 22 -35 58 -45 78 -10 20 -22 40 -27 43 -6 3 -19 26 -30 50 -11 24
-24 47 -30 50 -6 3 -19 26 -30 50 -11 24 -24 47 -30 50 -6 3 -19 26 -30 50
-11 24 -24 47 -30 50 -6 3 -19 26 -30 50 -11 24 -24 47 -30 50 -6 3 -19 26
-30 50 -11 24 -24 47 -30 50 -6 3 -19 26 -30 50 -11 24 -24 47 -30 50 -6 3
-19 26 -30 50 -11 24 -24 47 -30 50 -6 3 -19 26 -30 50 -11 24 -24 47 -30 50
-5 3 -17 23 -26 43 -10 20 -24 45 -32 54 -8 10 -24 37 -36 60 -26 52 -39 56
-63 21z m-1 -190 c10 -9 18 -22 18 -28 0 -7 7 -18 15 -25 9 -7 25 -32 35 -55
10 -23 26 -48 35 -55 8 -7 15 -17 15 -22 0 -5 14 -29 30 -53 17 -24 30 -48 30
-53 0 -5 7 -15 15 -22 9 -7 25 -32 35 -55 10 -23 26 -48 35 -55 8 -7 15 -18
15 -25 0 -7 7 -18 15 -25 9 -7 25 -32 35 -55 10 -23 26 -48 35 -55 8 -7 15
-17 15 -22 0 -6 14 -30 30 -55 17 -24 30 -48 30 -52 0 -5 7 -14 15 -21 9 -7
25 -32 35 -55 10 -23 26 -48 35 -55 8 -7 15 -18 15 -25 0 -7 7 -18 15 -25 9
-7 25 -32 35 -55 10 -23 26 -48 35 -55 8 -7 15 -17 15 -22 0 -6 14 -30 30 -55
17 -24 30 -48 30 -52 0 -5 7 -14 15 -21 9 -7 25 -32 35 -55 10 -23 26 -48 35
-55 8 -7 15 -18 15 -25 0 -7 7 -18 15 -25 9 -7 25 -32 35 -55 10 -23 26 -48
35 -55 8 -7 15 -17 15 -22 0 -6 14 -30 30 -55 17 -24 30 -48 30 -52 0 -5 7
-14 15 -21 9 -7 25 -32 35 -55 10 -23 26 -48 35 -55 8 -7 15 -17 15 -22 0 -5
14 -29 30 -53 17 -24 30 -48 30 -53 0 -5 9 -17 20 -27 11 -10 20 -22 20 -28 0
-5 14 -29 30 -54 17 -24 30 -48 30 -52 0 -5 7 -14 15 -21 9 -7 25 -32 35 -55
10 -23 26 -48 35 -55 8 -7 15 -17 15 -22 0 -5 14 -29 30 -53 17 -24 30 -48 30
-53 0 -5 9 -17 20 -27 11 -10 20 -22 20 -28 0 -5 14 -29 30 -54 17 -24 30 -48
30 -52 0 -5 7 -14 15 -21 9 -7 25 -32 35 -55 10 -23 26 -48 35 -55 8 -7 15
-17 15 -22 0 -5 14 -29 30 -53 17 -24 30 -48 30 -53 0 -5 7 -15 15 -22 9 -7
25 -32 35 -55 10 -23 26 -48 35 -55 8 -7 15 -18 15 -25 0 -7 7 -18 15 -25 9
-7 25 -32 35 -55 10 -23 26 -48 35 -55 8 -7 15 -17 15 -22 0 -5 14 -29 30 -53
17 -24 30 -48 30 -53 0 -5 7 -15 15 -22 9 -7 25 -32 35 -55 10 -23 26 -48 35
-55 8 -7 15 -18 15 -25 0 -7 7 -18 15 -25 9 -7 25 -32 35 -55 10 -23 26 -48
35 -55 8 -7 15 -17 15 -22 0 -6 14 -30 30 -55 17 -24 30 -48 30 -52 0 -5 7
-14 15 -21 9 -7 25 -32 35 -55 10 -23 26 -48 35 -55 8 -7 15 -18 15 -25 0 -7
7 -18 15 -25 9 -7 25 -32 35 -55 10 -23 26 -48 35 -55 8 -7 15 -17 15 -22 0
-6 13 -30 30 -55 16 -24 30 -48 30 -52 0 -5 7 -14 15 -21 9 -7 25 -32 35 -55
10 -23 26 -48 35 -55 8 -7 15 -18 15 -25 0 -7 7 -18 15 -25 9 -7 25 -32 35
-55 10 -23 26 -48 35 -55 8 -7 15 -17 15 -22 0 -6 14 -30 30 -55 16 -24 30
-48 30 -52 0 -5 7 -14 15 -21 9 -7 25 -32 35 -55 10 -23 26 -48 35 -55 8 -7
15 -17 15 -22 0 -5 14 -29 30 -53 17 -24 30 -48 30 -53 0 -5 9 -17 20 -27 11
-10 20 -22 20 -28 0 -5 13 -29 30 -54 16 -24 30 -48 30 -52 0 -5 7 -14 15 -21
9 -7 25 -32 35 -55 10 -23 26 -48 35 -55 8 -7 15 -17 15 -22 0 -5 14 -29 30
-53 17 -24 30 -48 30 -53 0 -5 9 -17 20 -27 11 -10 20 -22 20 -28 0 -5 14 -29
30 -54 17 -24 30 -48 30 -52 0 -5 7 -14 15 -21 9 -7 25 -32 35 -55 10 -23 26
-48 35 -55 8 -7 15 -17 15 -22 0 -5 14 -29 30 -53 17 -24 30 -48 30 -53 0 -5
7 -15 15 -22 9 -7 25 -32 35 -55 10 -23 26 -48 35 -55 8 -7 15 -18 15 -25 0
-7 7 -18 15 -25 9 -7 25 -32 35 -55 10 -23 26 -48 35 -55 8 -7 15 -17 15 -22
0 -5 14 -29 30 -53 16 -24 30 -48 30 -53 0 -5 7 -15 15 -22 9 -7 25 -32 35
-55 10 -23 26 -48 35 -55 8 -7 15 -18 15 -25 0 -7 7 -18 15 -25 9 -7 25 -32
35 -55 10 -23 26 -48 35 -55 8 -7 15 -17 15 -22 0 -6 14 -30 30 -55 16 -24 30
-47 30 -50 0 -4 10 -17 21 -29 50 -53 -1 -64 -297 -64 -101 0 -261 -4 -356
-10 -95 -5 -281 -12 -413 -15 -132 -3 -386 -10 -565 -15 -179 -5 -473 -14
-655 -20 -181 -5 -476 -14 -655 -20 -179 -6 -473 -14 -655 -19 -181 -6 -386
-12 -455 -15 -69 -4 -217 -8 -330 -11 -196 -5 -461 -13 -1190 -35 -710 -22
-997 -30 -1310 -39 -179 -5 -380 -13 -447 -17 -103 -6 -123 -5 -128 7 -5 14
38 105 95 204 13 22 44 81 70 130 26 50 62 117 80 150 18 33 51 96 74 140 22
44 43 82 46 85 5 5 28 48 100 185 26 50 57 108 70 130 13 22 44 81 70 130 26
50 57 108 70 130 13 22 44 81 70 130 26 50 57 108 70 130 13 22 44 81 70 130
26 50 58 110 73 135 14 25 48 88 74 140 26 52 50 97 53 100 6 6 36 61 94 175
22 44 43 82 46 85 5 5 28 48 100 185 26 50 57 108 70 130 13 22 44 81 70 130
26 50 57 108 70 130 13 22 44 81 70 130 26 50 57 108 70 130 13 22 44 81 70
130 26 50 58 110 73 135 14 25 48 88 74 140 26 52 50 97 53 100 5 5 27 45 100
185 26 50 57 108 70 130 13 22 44 81 70 130 26 50 57 108 70 130 13 22 44 81
70 130 26 50 57 108 70 130 13 22 44 81 70 130 26 50 58 110 73 135 14 25 48
88 74 140 26 52 50 97 53 100 6 6 36 61 94 175 22 44 43 82 46 85 5 5 28 48
100 185 26 50 57 108 70 130 13 22 44 81 70 130 26 50 57 108 70 130 13 22 44
81 70 130 26 50 57 108 70 130 13 22 44 81 70 130 26 50 59 110 73 135 15 25
48 89 74 142 27 54 52 98 57 98 5 0 18 -7 28 -17z"/>
<path d="M4993 8354 c-10 -16 -36 -63 -56 -104 -21 -41 -51 -97 -67 -125 -16
-27 -51 -93 -77 -145 -26 -52 -50 -97 -53 -100 -6 -6 -36 -61 -94 -175 -22
-44 -43 -82 -46 -85 -5 -5 -28 -48 -100 -185 -26 -49 -57 -108 -70 -130 -13
-22 -44 -80 -70 -130 -26 -49 -57 -108 -70 -130 -13 -22 -44 -80 -70 -130 -26
-49 -57 -108 -70 -130 -13 -22 -44 -80 -70 -130 -26 -49 -58 -110 -73 -135
-14 -25 -48 -88 -74 -140 -26 -52 -50 -97 -53 -100 -5 -5 -27 -45 -100 -185
-26 -49 -57 -108 -70 -130 -13 -22 -44 -80 -70 -130 -26 -49 -57 -108 -70
-130 -13 -22 -44 -80 -70 -130 -26 -49 -57 -108 -70 -130 -13 -22 -44 -80 -70
-130 -26 -49 -57 -108 -70 -130 -13 -22 -44 -80 -70 -130 -26 -49 -62 -117
-80 -150 -18 -33 -51 -96 -74 -140 -22 -44 -43 -82 -46 -85 -5 -5 -28 -48
-100 -185 -26 -49 -57 -108 -70 -130 -13 -22 -44 -80 -70 -130 -26 -49 -57
-108 -70 -130 -13 -22 -44 -80 -70 -130 -26 -49 -57 -108 -70 -130 -13 -22
-44 -80 -70 -130 -26 -49 -58 -110 -73 -135 -14 -25 -48 -88 -74 -140 -26 -52
-50 -97 -53 -100 -5 -5 -27 -45 -100 -185 -26 -49 -57 -108 -70 -130 -13 -22
-44 -80 -70 -130 -26 -49 -57 -108 -70 -130 -13 -22 -44 -80 -70 -130 -26 -49
-57 -108 -70 -130 -13 -22 -44 -80 -70 -130 -26 -49 -57 -108 -70 -130 -13
-22 -44 -80 -70 -130 -62 -118 -103 -195 -120 -221 -7 -12 -10 -29 -6 -39 6
-15 15 -17 69 -11 34 3 159 9 277 11 118 3 339 10 490 15 151 6 363 13 470 15
276 8 1173 34 1830 55 179 6 474 14 655 19 182 6 386 12 455 15 69 4 217 8
330 11 113 3 352 10 533 15 308 9 507 15 1322 40 187 6 476 14 643 18 175 5
307 13 312 18 12 12 -11 64 -35 84 -8 7 -15 18 -15 25 0 7 -7 18 -15 25 -9 7
-25 32 -35 55 -10 23 -26 48 -35 55 -8 7 -15 17 -15 22 0 6 -13 30 -30 55 -16
24 -30 48 -30 52 0 5 -7 14 -15 21 -9 7 -25 32 -35 55 -10 23 -26 48 -35 55
-8 7 -15 18 -15 25 0 7 -7 18 -15 25 -9 7 -25 32 -35 55 -10 23 -26 48 -35 55
-8 7 -15 17 -15 22 0 6 -14 30 -30 55 -16 24 -30 48 -30 52 0 5 -7 14 -15 21
-9 7 -25 32 -35 55 -10 23 -26 48 -35 55 -8 7 -15 18 -15 25 0 7 -7 18 -15 25
-9 7 -25 32 -35 55 -10 23 -26 48 -35 55 -8 7 -15 17 -15 22 0 6 -13 30 -30
55 -16 24 -30 48 -30 52 0 5 -7 14 -15 21 -9 7 -25 32 -35 55 -10 23 -26 48
-35 55 -8 7 -15 17 -15 22 0 5 -13 29 -30 53 -16 24 -30 48 -30 53 0 5 -9 17
-20 27 -11 10 -20 22 -20 28 0 5 -13 29 -30 54 -16 24 -30 48 -30 52 0 5 -7
14 -15 21 -9 7 -25 32 -35 55 -10 23 -26 48 -35 55 -8 7 -15 17 -15 22 0 5
-13 29 -30 53 -16 24 -30 48 -30 53 0 5 -7 15 -15 22 -9 7 -25 32 -35 55 -10
23 -26 48 -35 55 -8 7 -15 18 -15 25 0 7 -7 18 -15 25 -9 7 -25 32 -35 55 -10
23 -26 48 -35 55 -8 7 -15 17 -15 22 0 5 -13 29 -30 53 -16 24 -30 48 -30 53
0 5 -7 15 -15 22 -9 7 -25 32 -35 55 -10 23 -26 48 -35 55 -8 7 -15 18 -15 25
0 7 -7 18 -15 25 -9 7 -25 32 -35 55 -10 23 -26 48 -35 55 -8 7 -15 17 -15 22
0 6 -13 30 -30 55 -16 24 -30 48 -30 52 0 5 -7 14 -15 21 -9 7 -25 32 -35 55
-10 23 -26 48 -35 55 -8 7 -15 18 -15 25 0 7 -7 18 -15 25 -9 7 -25 32 -35 55
-10 23 -26 48 -35 55 -8 7 -15 17 -15 22 0 6 -13 30 -30 55 -16 24 -30 48 -30
52 0 5 -7 14 -15 21 -9 7 -25 32 -35 55 -10 23 -26 48 -35 55 -8 7 -15 18 -15
25 0 7 -7 18 -15 25 -9 7 -25 32 -35 55 -10 23 -26 48 -35 55 -8 7 -15 17 -15
22 0 6 -13 30 -30 55 -16 24 -30 48 -30 52 0 5 -7 14 -15 21 -9 7 -25 32 -35
55 -10 23 -26 48 -35 55 -8 7 -15 18 -15 25 0 7 -7 18 -15 25 -9 7 -25 32 -35
55 -10 23 -26 48 -35 55 -8 7 -15 17 -15 22 0 6 -13 30 -30 55 -16 24 -30 48
-30 52 0 5 -7 14 -15 21 -9 7 -25 32 -35 55 -10 23 -26 48 -35 55 -8 7 -15 17
-15 22 0 5 -13 29 -30 53 -16 24 -30 48 -30 53 0 5 -9 17 -20 27 -11 10 -20
22 -20 28 0 5 -13 29 -30 54 -16 24 -30 48 -30 52 0 5 -7 14 -15 21 -9 7 -25
32 -35 55 -10 23 -26 48 -35 55 -8 7 -15 17 -15 22 0 5 -13 29 -30 53 -16 24
-30 48 -30 53 0 5 -7 15 -15 22 -9 7 -25 32 -35 55 -10 23 -26 48 -35 55 -8 7
-15 18 -15 25 0 7 -7 18 -15 25 -9 7 -25 32 -35 55 -10 23 -26 48 -35 55 -8 7
-15 17 -15 22 0 5 -13 29 -30 53 -16 24 -30 48 -30 53 0 5 -7 15 -15 22 -9 7
-25 32 -35 55 -10 23 -26 48 -35 55 -8 7 -15 18 -15 25 0 7 -7 18 -15 25 -9 7
-25 32 -35 55 -10 23 -26 48 -35 55 -8 7 -15 17 -15 22 0 6 -13 30 -30 55 -16
24 -30 48 -30 52 0 5 -7 14 -15 21 -9 7 -25 32 -35 55 -10 23 -26 48 -35 55
-8 7 -15 18 -15 25 0 7 -7 18 -15 25 -9 7 -25 32 -35 55 -10 23 -26 48 -35 55
-8 7 -15 17 -15 22 0 6 -13 30 -30 55 -16 24 -30 48 -30 52 0 5 -7 14 -15 21
-9 7 -25 32 -35 55 -10 23 -26 48 -35 55 -8 7 -15 18 -15 25 0 7 -7 18 -15 25
-9 7 -25 32 -35 55 -10 23 -26 48 -35 55 -8 7 -15 18 -15 24 0 6 -9 22 -19 35
l-18 23 -20 -28z m16 -223 c12 -16 21 -33 21 -38 0 -6 9 -18 20 -28 11 -10 20
-23 20 -30 0 -7 9 -20 20 -30 11 -10 20 -24 20 -30 0 -7 7 -18 15 -25 9 -7 25
-32 35 -55 10 -23 26 -48 35 -55 8 -7 15 -18 15 -25 0 -6 9 -20 20 -30 11 -10
20 -23 20 -30 0 -7 9 -20 20 -30 11 -10 20 -22 20 -27 0 -5 14 -29 30 -53 17
-24 30 -48 30 -53 0 -5 9 -17 20 -27 11 -10 20 -23 20 -30 0 -7 9 -20 20 -30
11 -10 20 -24 20 -30 0 -7 7 -18 15 -25 9 -7 25 -32 35 -55 10 -23 26 -48 35
-55 8 -7 15 -18 15 -25 0 -6 9 -20 20 -30 11 -10 20 -23 20 -30 0 -7 9 -20 20
-30 11 -10 20 -22 20 -27 0 -5 14 -29 30 -53 17 -24 30 -48 30 -53 0 -5 9 -17
20 -27 11 -10 20 -23 20 -30 0 -7 9 -20 20 -30 11 -10 20 -24 20 -30 0 -7 7
-18 15 -25 9 -7 25 -32 35 -55 10 -23 26 -48 35 -55 8 -7 15 -18 15 -25 0 -6
9 -20 20 -30 11 -10 20 -23 20 -30 0 -7 9 -20 20 -30 11 -10 20 -22 20 -27 0
-5 14 -29 30 -53 17 -24 30 -48 30 -53 0 -5 9 -17 20 -27 11 -10 20 -23 20
-30 0 -7 9 -20 20 -30 11 -10 20 -24 20 -30 0 -7 7 -18 15 -25 9 -7 25 -32 35
-55 10 -23 26 -48 35 -55 8 -7 15 -18 15 -25 0 -6 9 -20 20 -30 11 -10 20 -23
20 -30 0 -7 9 -20 20 -30 11 -10 20 -22 20 -27 0 -5 14 -29 30 -53 17 -24 30
-48 30 -53 0 -5 9 -17 20 -27 11 -10 20 -23 20 -30 0 -7 9 -20 20 -30 11 -10
20 -24 20 -30 0 -7 7 -18 15 -25 9 -7 25 -32 35 -55 10 -23 26 -48 35 -55 8
-7 15 -18 15 -25 0 -6 9 -20 20 -30 11 -10 20 -23 20 -30 0 -7 9 -20 20 -30
11 -10 20 -22 20 -27 0 -5 14 -29 30 -53 17 -24 30 -48 30 -53 0 -5 9 -17 20
-27 11 -10 20 -23 20 -30 0 -7 9 -20 20 -30 11 -10 20 -24 20 -30 0 -7 7 -18
15 -25 9 -7 25 -32 35 -55 10 -23 26 -48 35 -55 8 -7 15 -18 15 -25 0 -6 9
-20 20 -30 11 -10 20 -23 20 -30 0 -7 9 -20 20 -30 11 -10 20 -22 20 -27 0 -5
14 -29 30 -53 17 -24 30 -48 30 -53 0 -5 9 -17 20 -27 11 -10 20 -23 20 -30 0
-7 9 -20 20 -30 11 -10 20 -24 20 -30 0 -7 7 -18 15 -25 9 -7 25 -32 35 -55
10 -23 26 -48 35 -55 8 -7 15 -18 15 -25 0 -6 9 -20 20 -30 11 -10 20 -23 20
-30 0 -7 9 -20 20 -30 11 -10 20 -22 20 -27 0 -5 14 -29 30 -53 17 -24 30 -48
30 -53 0 -5 9 -17 20 -27 11 -10 20 -23 20 -30 0 -7 9 -20 20 -30 11 -10 20
-24 20 -30 0 -7 7 -18 15 -25 9 -7 25 -32 35 -55 10 -23 26 -48 35 -55 8 -7
15 -18 15 -25 0 -6 9 -20 20 -30 11 -10 20 -23 20 -30 0 -7 9 -20 20 -30 11
-10 20 -22 20 -27 0 -5 14 -29 30 -53 17 -24 30 -48 30 -53 0 -5 9 -17 20 -27
11 -10 20 -23 20 -30 0 -7 9 -20 20 -30 11 -10 20 -24 20 -30 0 -7 7 -18 15
-25 9 -7 25 -32 35 -55 10 -23 26 -48 35 -55 8 -7 15 -18 15 -25 0 -6 9 -20
20 -30 11 -10 20 -23 20 -30 0 -7 9 -20 20 -30 11 -10 20 -22 20 -27 0 -5 14
-29 30 -53 17 -24 30 -48 30 -53 0 -5 9 -17 20 -27 11 -10 20 -23 20 -30 0 -7
9 -20 20 -30 11 -10 20 -24 20 -30 0 -7 7 -18 15 -25 9 -7 25 -32 35 -55 10
-23 26 -48 35 -55 8 -7 15 -18 15 -25 0 -6 9 -20 20 -30 11 -10 20 -23 20 -30
0 -7 9 -20 20 -30 11 -10 20 -22 20 -27 0 -5 14 -29 30 -53 17 -24 30 -48 30
-53 0 -5 9 -17 20 -27 11 -10 20 -23 20 -30 0 -7 9 -20 20 -30 11 -10 20 -24
20 -30 0 -7 7 -18 15 -25 9 -7 25 -32 35 -55 10 -23 26 -48 35 -55 8 -7 15
-18 15 -25 0 -6 9 -20 20 -30 11 -10 20 -23 20 -30 0 -7 9 -20 20 -30 11 -10
20 -22 20 -27 0 -5 14 -29 30 -53 17 -24 30 -48 30 -53 0 -5 9 -17 20 -27 11
-10 20 -23 20 -30 0 -7 9 -20 20 -30 11 -10 20 -22 20 -27 0 -5 14 -29 30 -53
55 -79 52 -82 -117 -88 -371 -14 -649 -27 -660 -32 -7 -2 -65 -5 -130 -5 -65
-1 -179 -5 -253 -10 -74 -5 -200 -12 -280 -15 -139 -5 -328 -14 -797 -35 -251
-11 -576 -26 -878 -40 -115 -5 -324 -14 -463 -19 -139 -6 -257 -13 -261 -15
-4 -3 -61 -6 -127 -6 -65 -1 -180 -5 -254 -10 -74 -5 -205 -12 -290 -15 -85
-3 -249 -10 -365 -16 -115 -5 -308 -14 -427 -19 -215 -10 -446 -20 -875 -40
-488 -22 -678 -28 -686 -21 -7 7 16 54 116 241 22 41 84 161 137 265 53 105
116 226 140 270 24 44 91 175 150 290 59 116 126 246 150 290 24 44 87 166
140 270 53 105 118 228 143 275 25 47 90 173 143 280 54 107 101 197 104 200
5 5 27 46 190 365 53 105 118 228 143 275 25 47 90 173 143 280 54 107 101
197 104 200 6 6 40 71 180 345 59 116 126 246 150 290 24 44 87 166 140 270
53 105 116 226 140 270 24 44 91 175 150 290 59 116 126 246 150 290 24 44 87
166 140 270 53 105 118 228 143 275 25 47 72 138 104 202 63 127 77 139 112
89z"/>
<path d="M4881 7958 c-45 -90 -103 -201 -128 -248 -25 -47 -94 -179 -153 -295
-59 -115 -126 -246 -150 -290 -24 -44 -87 -165 -140 -270 -53 -104 -116 -226
-140 -270 -24 -44 -91 -174 -150 -290 -59 -115 -126 -246 -150 -290 -24 -44
-87 -165 -140 -270 -53 -104 -118 -228 -143 -275 -25 -47 -90 -173 -143 -280
-54 -107 -101 -197 -104 -200 -5 -5 -27 -46 -190 -365 -53 -104 -118 -228
-143 -275 -25 -47 -90 -173 -143 -280 -54 -107 -101 -197 -104 -200 -6 -6 -40
-71 -180 -345 -59 -115 -126 -246 -150 -290 -24 -44 -87 -165 -140 -270 -53
-104 -116 -226 -140 -270 -24 -44 -91 -174 -150 -290 -59 -115 -121 -237 -139
-269 -17 -33 -28 -62 -24 -65 8 -7 197 -1 608 18 121 6 333 15 470 21 138 5
255 12 262 15 7 2 65 5 130 5 65 1 179 5 253 10 74 5 200 12 280 15 153 6 293
12 1243 55 523 24 655 30 895 39 139 6 257 13 261 15 4 3 61 6 127 6 65 1 180
5 254 10 74 5 205 12 290 15 85 3 250 10 365 16 116 5 309 14 430 19 121 6
315 15 430 20 116 5 281 12 368 16 159 7 179 13 142 44 -8 7 -15 18 -15 25 0
6 -9 20 -20 30 -11 10 -20 22 -20 27 0 5 -13 29 -30 53 -16 24 -30 48 -30 53
0 5 -9 17 -20 27 -11 10 -20 23 -20 30 0 7 -9 20 -20 30 -11 10 -20 22 -20 27
0 5 -13 29 -30 53 -16 24 -30 48 -30 53 0 5 -9 17 -20 27 -11 10 -20 23 -20
30 0 7 -9 20 -20 30 -11 10 -20 23 -20 30 0 7 -9 20 -20 30 -11 10 -20 22 -20
28 0 5 -13 29 -30 54 -16 24 -30 48 -30 52 0 4 -9 16 -20 26 -11 10 -20 23
-20 30 0 7 -9 20 -20 30 -11 10 -20 22 -20 27 0 5 -13 29 -30 53 -16 24 -30
48 -30 53 0 5 -9 17 -20 27 -11 10 -20 23 -20 30 0 7 -9 20 -20 30 -11 10 -20
23 -20 30 0 7 -9 20 -20 30 -11 10 -20 22 -20 28 0 5 -13 29 -30 54 -16 24
-30 48 -30 52 0 4 -9 16 -20 26 -11 10 -20 23 -20 30 0 7 -9 20 -20 30 -11 10
-20 22 -20 27 0 5 -13 29 -30 53 -16 24 -30 48 -30 53 0 5 -9 17 -20 27 -11
10 -20 23 -20 30 0 7 -9 20 -20 30 -11 10 -20 23 -20 30 0 7 -9 20 -20 30 -11
10 -20 22 -20 28 0 5 -13 29 -30 54 -16 24 -30 48 -30 52 0 4 -9 16 -20 26
-11 10 -20 23 -20 30 0 7 -9 20 -20 30 -11 10 -20 22 -20 27 0 5 -13 29 -30
53 -16 24 -30 48 -30 53 0 5 -9 17 -20 27 -11 10 -20 23 -20 30 0 7 -9 20 -20
30 -11 10 -20 23 -20 30 0 7 -9 20 -20 30 -11 10 -20 22 -20 28 0 5 -13 29
-30 54 -16 24 -30 48 -30 52 0 4 -9 16 -20 26 -11 10 -20 23 -20 30 0 7 -9 20
-20 30 -11 10 -20 22 -20 27 0 5 -13 29 -30 53 -16 24 -30 48 -30 53 0 5 -9
17 -20 27 -11 10 -20 23 -20 30 0 7 -9 20 -20 30 -11 10 -20 23 -20 30 0 7 -9
20 -20 30 -11 10 -20 22 -20 28 0 5 -13 29 -30 54 -16 24 -30 48 -30 52 0 4
-9 16 -20 26 -11 10 -20 23 -20 30 0 7 -9 20 -20 30 -11 10 -20 22 -20 27 0 5
-13 29 -30 53 -16 24 -30 48 -30 53 0 5 -9 17 -20 27 -11 10 -20 23 -20 30 0
7 -9 20 -20 30 -11 10 -20 23 -20 30 0 7 -9 20 -20 30 -11 10 -20 22 -20 28 0
5 -13 29 -30 54 -16 24 -30 48 -30 52 0 4 -9 16 -20 26 -11 10 -20 23 -20 30
0 7 -9 20 -20 30 -11 10 -20 22 -20 27 0 5 -13 29 -30 53 -16 24 -30 48 -30
53 0 5 -9 17 -20 27 -11 10 -20 23 -20 30 0 7 -9 20 -20 30 -11 10 -20 23 -20
30 0 7 -9 20 -20 30 -11 10 -20 22 -20 28 0 5 -13 29 -30 54 -16 24 -30 48
-30 52 0 4 -9 16 -20 26 -11 10 -20 23 -20 30 0 7 -9 20 -20 30 -11 10 -20 22
-20 27 0 5 -13 29 -30 53 -16 24 -30 48 -30 53 0 5 -9 17 -20 27 -11 10 -20
23 -20 30 0 7 -9 20 -20 30 -11 10 -20 23 -20 30 0 7 -9 20 -20 30 -11 10 -20
22 -20 28 0 5 -13 29 -30 54 -16 24 -30 48 -30 52 0 4 -9 16 -20 26 -11 10
-20 23 -20 30 0 7 -9 20 -20 30 -11 10 -20 22 -20 27 0 5 -13 29 -30 53 -16
24 -30 48 -30 53 0 5 -9 17 -20 27 -11 10 -20 23 -20 30 0 7 -9 20 -20 30 -11
10 -20 23 -20 30 0 7 -9 20 -20 30 -11 10 -20 22 -20 28 0 5 -13 29 -30 54
-16 24 -30 48 -30 52 0 4 -9 16 -20 26 -11 10 -20 23 -20 30 0 7 -9 20 -20 30
-11 10 -20 22 -20 27 0 5 -13 29 -30 53 -16 24 -30 48 -30 53 0 5 -9 17 -20
27 -11 10 -20 23 -20 30 0 7 -9 20 -20 30 -11 10 -20 23 -20 30 0 7 -9 20 -20
30 -11 10 -20 22 -20 28 0 5 -13 29 -30 54 -16 24 -30 48 -30 52 0 4 -9 16
-20 26 -11 10 -20 23 -20 30 0 7 -9 20 -20 30 -11 10 -20 22 -20 27 0 5 -13
29 -30 53 -16 24 -30 48 -30 53 0 5 -9 17 -20 27 -11 10 -20 23 -20 30 0 7 -9
20 -20 30 -11 10 -20 23 -20 30 0 7 -9 20 -20 30 -11 10 -20 22 -20 27 0 5
-12 27 -27 51 -15 23 -32 51 -38 62 -25 47 -41 30 -124 -137z m88 -61 c5 -13
16 -29 25 -36 9 -7 16 -19 16 -26 0 -6 9 -20 20 -30 11 -10 20 -23 20 -30 0
-7 9 -20 20 -30 11 -10 20 -23 20 -30 0 -7 9 -20 20 -30 11 -10 20 -23 20 -30
0 -7 9 -20 20 -30 11 -10 20 -23 20 -30 0 -7 9 -20 20 -30 11 -10 20 -23 20
-30 0 -7 9 -20 20 -30 11 -10 20 -22 20 -27 0 -5 50 -82 110 -173 61 -91 110
-168 110 -173 0 -5 9 -17 20 -27 11 -10 20 -23 20 -30 0 -7 9 -20 20 -30 11
-10 20 -23 20 -30 0 -7 9 -20 20 -30 11 -10 20 -23 20 -30 0 -7 9 -20 20 -30
11 -10 20 -23 20 -30 0 -7 9 -20 20 -30 11 -10 20 -23 20 -30 0 -7 9 -20 20
-30 11 -10 20 -23 20 -30 0 -7 9 -20 20 -30 11 -10 20 -23 20 -30 0 -7 9 -20
20 -30 11 -10 20 -23 20 -30 0 -7 9 -20 20 -30 11 -10 20 -23 20 -30 0 -7 9
-20 20 -30 11 -10 20 -23 20 -30 0 -7 9 -20 20 -30 11 -10 20 -23 20 -30 0 -7
9 -20 20 -30 11 -10 20 -23 20 -30 0 -7 9 -20 20 -30 11 -10 20 -23 20 -30 0
-7 9 -20 20 -30 11 -10 20 -23 20 -30 0 -7 9 -20 20 -30 11 -10 20 -23 20 -30
0 -7 9 -20 20 -30 11 -10 20 -23 20 -30 0 -7 9 -20 20 -30 11 -10 20 -22 20
-27 0 -5 50 -82 110 -173 61 -91 110 -168 110 -173 0 -5 9 -17 20 -27 11 -10
20 -23 20 -30 0 -7 9 -20 20 -30 11 -10 20 -23 20 -30 0 -7 9 -20 20 -30 11
-10 20 -23 20 -30 0 -7 9 -20 20 -30 11 -10 20 -23 20 -30 0 -7 9 -20 20 -30
11 -10 20 -23 20 -30 0 -7 9 -20 20 -30 11 -10 20 -23 20 -30 0 -7 9 -20 20
-30 11 -10 20 -23 20 -30 0 -7 9 -20 20 -30 11 -10 20 -23 20 -30 0 -7 9 -20
20 -30 11 -10 20 -23 20 -30 0 -7 9 -20 20 -30 11 -10 20 -23 20 -30 0 -7 9
-20 20 -30 11 -10 20 -23 20 -30 0 -7 9 -20 20 -30 11 -10 20 -23 20 -30 0 -7
9 -20 20 -30 11 -10 20 -23 20 -30 0 -7 9 -20 20 -30 11 -10 20 -23 20 -30 0
-7 9 -20 20 -30 11 -10 20 -23 20 -30 0 -7 9 -20 20 -30 11 -10 20 -22 20 -27
0 -5 50 -82 110 -173 61 -91 110 -168 110 -173 0 -5 9 -17 20 -27 11 -10 20
-23 20 -30 0 -7 9 -20 20 -30 11 -10 20 -23 20 -30 0 -7 9 -20 20 -30 11 -10
20 -23 20 -30 0 -7 9 -20 20 -30 11 -10 20 -23 20 -30 0 -7 9 -20 20 -30 11
-10 20 -23 20 -30 0 -7 9 -20 20 -30 11 -10 20 -23 20 -30 0 -7 9 -20 20 -30
11 -10 20 -23 20 -30 0 -7 9 -20 20 -30 11 -10 20 -23 20 -30 0 -7 9 -20 20
-30 11 -10 20 -23 20 -30 0 -7 9 -20 20 -30 11 -10 20 -23 20 -30 0 -7 9 -20
20 -30 11 -10 20 -23 20 -30 0 -7 9 -20 20 -30 11 -10 20 -23 20 -30 0 -7 9
-20 20 -30 11 -10 20 -23 20 -30 0 -7 9 -20 20 -30 11 -10 20 -23 20 -30 0 -7
9 -20 20 -30 11 -10 20 -23 20 -30 0 -7 9 -20 20 -30 11 -10 20 -23 20 -30 0
-7 9 -20 20 -30 11 -10 20 -22 20 -27 0 -5 50 -82 110 -173 61 -91 110 -168
110 -173 0 -5 9 -17 20 -27 11 -10 20 -23 20 -30 0 -7 9 -20 20 -30 11 -10 20
-23 20 -30 0 -7 9 -20 20 -30 11 -10 20 -23 20 -30 0 -7 9 -20 20 -30 11 -10
20 -23 20 -30 0 -7 9 -20 20 -30 11 -10 20 -23 20 -30 0 -7 9 -20 20 -30 11
-10 20 -24 20 -30 0 -7 7 -18 15 -25 17 -14 45 -67 45 -86 0 -17 -36 -22 -190
-28 -69 -3 -199 -10 -290 -16 -91 -6 -239 -15 -330 -20 -91 -5 -239 -14 -330
-20 -91 -6 -239 -15 -330 -20 -91 -5 -187 -11 -215 -14 -27 -3 -99 -8 -160
-11 -60 -3 -184 -9 -275 -15 -91 -6 -239 -15 -330 -20 -91 -5 -239 -14 -330
-20 -91 -6 -239 -15 -330 -20 -91 -5 -187 -11 -215 -14 -27 -3 -99 -8 -160
-11 -60 -3 -184 -9 -275 -15 -91 -6 -239 -15 -330 -20 -91 -5 -239 -14 -330
-20 -91 -6 -241 -15 -335 -20 -93 -5 -186 -12 -205 -14 -19 -3 -91 -8 -160
-11 -69 -3 -195 -10 -280 -15 -85 -5 -242 -14 -349 -20 -106 -5 -196 -12 -200
-15 -4 -2 -50 -5 -102 -6 -52 0 -130 -5 -174 -10 -48 -5 -83 -5 -89 1 -5 5
516 1059 1364 2757 755 1511 1390 2785 1413 2831 41 84 61 100 76 59z"/>
<path d="M3871 5737 c-1681 -3369 -1721 -3451 -1713 -3459 4 -4 86 -3 182 2
96 6 249 15 340 20 91 5 188 11 215 14 28 3 100 8 160 11 61 3 184 9 275 15
91 6 239 15 330 20 91 5 239 14 330 20 91 6 239 15 330 20 91 5 188 11 215 14
28 3 100 8 160 11 61 3 184 9 275 15 91 6 239 15 330 20 91 5 239 14 330 20
91 6 239 15 330 20 91 5 188 11 215 14 28 3 100 8 160 11 61 3 184 9 275 15
91 6 242 14 335 20 94 5 195 11 225 14 30 3 100 8 155 11 101 4 148 7 425 25
165 11 231 15 460 26 141 7 180 14 180 35 0 6 -18 37 -40 69 -22 32 -40 63
-40 68 0 5 -9 17 -20 27 -11 10 -20 23 -20 30 0 7 -9 20 -20 30 -11 10 -20 23
-20 30 0 7 -9 20 -20 30 -11 10 -20 23 -20 30 0 7 -9 20 -20 30 -11 10 -20 23
-20 30 0 7 -9 20 -20 30 -11 10 -20 23 -20 30 0 7 -9 20 -20 30 -11 10 -20 23
-20 30 0 7 -9 20 -20 30 -11 10 -20 23 -20 30 0 7 -9 20 -20 30 -11 10 -20 23
-20 30 0 7 -9 20 -20 30 -11 10 -20 23 -20 30 0 7 -9 20 -20 30 -11 10 -20 23
-20 30 0 7 -9 20 -20 30 -11 10 -20 23 -20 30 0 7 -9 20 -20 30 -11 10 -20 23
-20 30 0 7 -9 20 -20 30 -11 10 -20 23 -20 30 0 7 -9 20 -20 30 -11 10 -20 23
-20 30 0 7 -9 20 -20 30 -11 10 -20 23 -20 30 0 7 -9 20 -20 30 -11 10 -20 22
-20 26 0 5 -58 97 -130 204 -71 108 -130 200 -130 204 0 4 -9 16 -20 26 -11
10 -20 23 -20 30 0 7 -9 20 -20 30 -11 10 -20 23 -20 30 0 7 -9 20 -20 30 -11
10 -20 23 -20 30 0 7 -9 20 -20 30 -11 10 -20 23 -20 30 0 7 -9 20 -20 30 -11
10 -20 23 -20 30 0 7 -9 20 -20 30 -11 10 -20 23 -20 30 0 7 -9 20 -20 30 -11
10 -20 23 -20 30 0 7 -9 20 -20 30 -11 10 -20 23 -20 30 0 7 -9 20 -20 30 -11
10 -20 23 -20 30 0 7 -9 20 -20 30 -11 10 -20 23 -20 30 0 7 -9 20 -20 30 -11
10 -20 23 -20 30 0 7 -9 20 -20 30 -11 10 -20 23 -20 30 0 7 -9 20 -20 30 -11
10 -20 23 -20 30 0 7 -9 20 -20 30 -11 10 -20 23 -20 30 0 7 -9 20 -20 30 -11
10 -20 23 -20 30 0 7 -9 20 -20 30 -11 10 -20 22 -20 27 0 5 -49 82 -110 173
-60 91 -110 168 -110 173 0 5 -9 17 -20 27 -11 10 -20 23 -20 30 0 7 -9 20
-20 30 -11 10 -20 23 -20 30 0 7 -9 20 -20 30 -11 10 -20 23 -20 30 0 7 -9 20
-20 30 -11 10 -20 23 -20 30 0 7 -9 20 -20 30 -11 10 -20 23 -20 30 0 7 -9 20
-20 30 -11 10 -20 23 -20 30 0 7 -9 20 -20 30 -11 10 -20 23 -20 30 0 7 -9 20
-20 30 -11 10 -20 23 -20 30 0 7 -9 20 -20 30 -11 10 -20 23 -20 30 0 7 -9 20
-20 30 -11 10 -20 23 -20 30 0 7 -9 20 -20 30 -11 10 -20 23 -20 30 0 7 -9 20
-20 30 -11 10 -20 23 -20 30 0 7 -9 20 -20 30 -11 10 -20 23 -20 30 0 7 -9 20
-20 30 -11 10 -20 23 -20 30 0 7 -9 20 -20 30 -11 10 -20 23 -20 30 0 7 -9 20
-20 30 -11 10 -20 22 -20 26 0 5 -58 97 -130 204 -71 108 -130 200 -130 204 0
4 -9 16 -20 26 -11 10 -20 23 -20 30 0 7 -9 20 -20 30 -11 10 -20 23 -20 30 0
7 -9 20 -20 30 -11 10 -20 23 -20 30 0 7 -9 20 -20 30 -11 10 -20 23 -20 30 0
7 -9 20 -20 30 -11 10 -20 23 -20 30 0 7 -9 20 -20 30 -11 10 -20 23 -20 30 0
7 -9 20 -20 30 -11 10 -20 23 -20 30 0 7 -9 20 -20 30 -11 10 -20 23 -20 30 0
7 -9 20 -20 30 -11 10 -20 23 -20 30 0 7 -9 20 -20 30 -11 10 -20 23 -20 30 0
7 -9 20 -20 30 -11 10 -20 23 -20 30 0 7 -9 20 -20 30 -11 10 -20 23 -20 30 0
7 -9 20 -20 30 -11 10 -20 23 -20 30 0 7 -9 20 -20 30 -11 10 -20 23 -20 30 0
7 -9 20 -20 30 -11 10 -20 23 -20 30 0 7 -9 20 -20 30 -11 10 -20 22 -20 27 0
16 -53 88 -64 88 -6 -1 -490 -960 -1075 -2133z m1102 1872 c20 -27 37 -54 37
-58 0 -4 9 -16 20 -26 11 -10 20 -23 20 -30 0 -7 9 -20 20 -30 11 -10 20 -23
20 -28 0 -6 7 -19 17 -29 9 -10 21 -27 27 -37 6 -10 36 -53 66 -96 30 -43 60
-86 66 -96 6 -10 18 -27 27 -37 10 -10 17 -23 17 -29 0 -5 9 -18 20 -28 11
-10 20 -23 20 -30 0 -7 9 -20 20 -30 11 -10 20 -23 20 -30 0 -7 9 -20 20 -30
11 -10 20 -22 20 -26 0 -5 6 -17 14 -26 40 -49 86 -114 86 -122 0 -4 9 -16 20
-26 11 -10 20 -23 20 -30 0 -7 9 -20 20 -30 11 -10 20 -23 20 -30 0 -7 9 -20
20 -30 11 -10 20 -23 20 -30 0 -7 9 -20 20 -30 11 -10 20 -22 20 -26 0 -5 6
-17 14 -26 40 -49 86 -114 86 -122 0 -4 9 -16 20 -26 11 -10 20 -23 20 -30 0
-7 9 -20 20 -30 11 -10 20 -23 20 -30 0 -7 9 -20 20 -30 11 -10 20 -23 20 -28
0 -6 7 -19 17 -29 9 -10 21 -27 27 -37 6 -10 36 -53 66 -96 30 -43 60 -86 66
-96 6 -10 18 -27 27 -37 10 -10 17 -23 17 -29 0 -5 9 -18 20 -28 11 -10 20
-23 20 -28 0 -6 7 -19 17 -29 9 -10 21 -27 27 -37 6 -10 36 -53 66 -96 30 -43
60 -86 66 -96 6 -10 18 -27 27 -37 10 -10 17 -23 17 -29 0 -5 9 -18 20 -28 11
-10 20 -23 20 -28 0 -6 7 -19 17 -29 9 -10 21 -27 27 -37 6 -10 36 -53 66 -96
30 -43 60 -86 66 -96 6 -10 18 -27 27 -37 10 -10 17 -23 17 -29 0 -5 9 -18 20
-28 11 -10 20 -23 20 -28 0 -6 7 -19 17 -29 9 -10 21 -27 27 -37 6 -10 36 -53
66 -96 30 -43 60 -86 66 -96 6 -10 18 -27 27 -37 10 -10 17 -23 17 -29 0 -5 9
-18 20 -28 11 -10 20 -23 20 -30 0 -7 9 -20 20 -30 11 -10 20 -23 20 -30 0 -7
9 -20 20 -30 11 -10 20 -22 20 -26 0 -5 6 -17 14 -26 40 -49 86 -114 86 -122
0 -4 9 -16 20 -26 11 -10 20 -23 20 -30 0 -7 9 -20 20 -30 11 -10 20 -23 20
-30 0 -7 9 -20 20 -30 11 -10 20 -23 20 -30 0 -7 9 -20 20 -30 11 -10 20 -22
20 -26 0 -5 6 -17 14 -26 40 -49 86 -114 86 -122 0 -4 9 -16 20 -26 11 -10 20
-23 20 -30 0 -7 9 -20 20 -30 11 -10 20 -23 20 -30 0 -7 9 -20 20 -30 11 -10
20 -23 20 -28 0 -6 7 -19 17 -29 9 -10 21 -27 27 -37 6 -10 36 -53 66 -96 30
-43 60 -86 66 -96 6 -10 18 -27 27 -37 10 -10 17 -23 17 -29 0 -5 9 -18 20
-28 11 -10 20 -23 20 -28 0 -6 7 -19 17 -29 9 -10 21 -27 27 -37 6 -10 36 -53
66 -96 30 -43 60 -86 66 -96 6 -10 18 -27 27 -37 10 -10 17 -23 17 -29 0 -5 9
-18 20 -28 11 -10 20 -23 20 -28 0 -6 7 -19 17 -29 9 -10 21 -27 27 -37 6 -10
30 -46 54 -80 24 -34 41 -69 38 -77 -4 -10 -23 -14 -73 -14 -37 0 -115 -4
-173 -10 -58 -5 -166 -14 -240 -20 -74 -6 -193 -15 -265 -21 -71 -5 -188 -14
-260 -19 -71 -6 -184 -15 -250 -20 -66 -6 -151 -12 -190 -15 -38 -2 -95 -7
-125 -9 -30 -3 -91 -8 -135 -11 -97 -7 -288 -21 -467 -35 -73 -6 -194 -15
-268 -20 -74 -5 -195 -14 -267 -20 -129 -10 -271 -21 -518 -40 -66 -5 -189
-14 -274 -20 -84 -5 -156 -12 -160 -15 -4 -2 -43 -5 -87 -6 -43 -1 -106 -5
-139 -10 -33 -4 -91 -9 -130 -10 -38 -1 -99 -5 -135 -10 -36 -4 -105 -10 -155
-13 -49 -3 -148 -10 -220 -16 -71 -5 -192 -14 -267 -20 -76 -5 -200 -15 -275
-20 -76 -6 -196 -15 -268 -20 -264 -21 -380 -28 -387 -23 -15 8 -7 30 71 188
43 88 91 187 106 220 15 33 69 146 120 250 51 105 105 217 120 250 15 33 70
148 122 255 52 107 103 213 113 235 10 22 64 135 120 250 56 116 110 228 120
250 10 22 64 135 120 250 56 116 110 228 120 250 10 22 64 135 120 250 56 116
110 228 120 250 10 22 64 135 120 250 56 116 110 228 120 250 10 22 59 126
110 230 51 105 105 217 120 250 15 33 69 146 120 250 51 105 105 217 120 250
15 33 69 146 120 250 51 105 105 217 120 250 50 110 134 280 143 293 16 21 31
13 70 -39z"/>
<path d="M4891 7577 c-13 -28 -35 -77 -48 -107 -14 -30 -67 -140 -118 -245
-51 -104 -105 -217 -120 -250 -15 -33 -69 -145 -120 -250 -51 -104 -105 -217
-120 -250 -15 -33 -69 -145 -120 -250 -51 -104 -105 -217 -120 -250 -15 -33
-70 -148 -122 -255 -52 -107 -103 -213 -113 -235 -10 -22 -64 -134 -120 -250
-56 -115 -110 -228 -120 -250 -10 -22 -64 -134 -120 -250 -56 -115 -110 -228
-120 -250 -10 -22 -64 -134 -120 -250 -56 -115 -110 -228 -120 -250 -10 -22
-64 -134 -120 -250 -56 -115 -110 -228 -120 -250 -10 -22 -59 -125 -110 -230
-51 -104 -105 -217 -120 -250 -27 -58 -202 -422 -221 -457 -22 -43 -13 -49 69
-47 42 1 104 5 137 10 33 4 92 9 130 10 39 1 99 5 135 10 36 4 106 10 155 13
87 6 204 14 488 36 72 6 193 15 267 20 74 5 194 14 265 20 72 5 191 14 265 20
74 6 189 15 255 20 66 5 189 14 274 20 84 5 156 12 160 15 4 2 43 5 87 6 43 1
108 5 144 10 36 4 106 10 155 13 87 6 204 14 488 36 72 6 193 15 267 20 74 5
195 14 268 20 128 10 270 21 517 40 66 5 189 14 274 20 84 5 156 12 160 15 4
2 43 5 87 6 43 1 106 5 139 9 33 5 111 11 174 14 62 3 116 8 120 11 4 2 42 5
85 6 87 2 103 15 67 53 -11 12 -21 26 -21 31 0 5 -7 17 -17 27 -9 10 -21 27
-27 37 -6 10 -36 53 -66 96 -30 43 -60 86 -66 96 -6 10 -18 27 -27 37 -10 10
-17 23 -17 29 0 5 -9 18 -20 28 -11 10 -20 23 -20 28 0 6 -7 19 -17 29 -9 10
-21 27 -27 37 -6 10 -36 53 -66 96 -30 43 -60 86 -66 96 -6 10 -18 27 -27 37
-10 10 -17 23 -17 29 0 5 -9 18 -20 28 -11 10 -20 23 -20 28 0 6 -7 19 -17 29
-9 10 -21 27 -27 37 -6 10 -36 53 -66 96 -30 43 -60 86 -66 96 -6 10 -18 27
-27 37 -10 10 -17 23 -17 29 0 5 -9 18 -20 28 -11 10 -20 23 -20 30 0 7 -9 20
-20 30 -11 10 -20 23 -20 30 0 7 -9 20 -20 30 -11 10 -20 22 -20 26 0 5 -6 17
-14 26 -40 49 -86 114 -86 122 0 4 -9 16 -20 26 -11 10 -20 23 -20 30 0 7 -9
20 -20 30 -11 10 -20 23 -20 30 0 7 -9 20 -20 30 -11 10 -20 23 -20 28 0 6 -7
19 -17 29 -9 10 -21 27 -27 37 -6 10 -36 53 -66 96 -30 43 -60 86 -66 96 -6
10 -18 27 -27 37 -10 10 -17 23 -17 29 0 5 -9 18 -20 28 -11 10 -20 23 -20 28
0 6 -7 19 -17 29 -9 10 -21 27 -27 37 -6 10 -36 53 -66 96 -30 43 -60 86 -66
96 -6 10 -18 27 -27 37 -10 10 -17 23 -17 29 0 5 -9 18 -20 28 -11 10 -20 23
-20 28 0 6 -7 19 -17 29 -9 10 -21 27 -27 37 -6 10 -36 53 -66 96 -30 43 -60
86 -66 96 -6 10 -18 27 -27 37 -10 10 -17 23 -17 29 0 5 -9 18 -20 28 -11 10
-20 23 -20 28 0 6 -7 19 -17 29 -9 10 -21 27 -27 37 -6 10 -36 53 -66 96 -30
43 -60 86 -66 96 -6 10 -18 27 -27 37 -10 10 -17 23 -17 29 0 5 -9 18 -20 28
-11 10 -20 23 -20 28 0 6 -7 19 -17 29 -9 10 -21 27 -27 37 -6 10 -36 53 -66
96 -30 43 -60 86 -66 96 -6 10 -18 27 -27 37 -10 10 -17 23 -17 29 0 5 -9 18
-20 28 -11 10 -20 23 -20 30 0 7 -9 20 -20 30 -11 10 -20 23 -20 30 0 7 -9 20
-20 30 -11 10 -20 22 -20 26 0 5 -6 17 -14 26 -40 49 -86 114 -86 122 0 4 -9
16 -20 26 -11 10 -20 23 -20 30 0 7 -9 20 -20 30 -11 10 -20 23 -20 30 0 7 -9
20 -20 30 -11 10 -20 23 -20 28 0 6 -7 19 -17 29 -9 10 -21 27 -27 37 -6 10
-36 53 -66 96 -30 43 -60 86 -66 96 -6 10 -18 27 -27 37 -10 10 -17 23 -17 29
0 5 -9 18 -20 28 -11 10 -20 23 -20 28 0 6 -7 19 -17 29 -9 10 -21 27 -27 37
-6 10 -36 53 -66 96 -30 43 -59 85 -65 94 -14 23 -52 71 -56 71 -2 0 -15 -24
-28 -53z m39 -177 c0 -5 6 -18 14 -27 33 -40 86 -114 86 -118 0 -3 23 -35 50
-70 28 -35 50 -68 50 -73 0 -5 9 -17 20 -27 11 -10 20 -22 20 -26 0 -5 6 -17
14 -26 33 -40 86 -114 86 -118 0 -3 23 -35 50 -70 28 -35 50 -68 50 -73 0 -5
9 -17 20 -27 11 -10 20 -22 20 -27 0 -5 13 -23 30 -41 16 -18 30 -37 30 -43 0
-6 9 -19 20 -29 11 -10 20 -22 20 -27 0 -5 23 -38 50 -73 28 -35 50 -68 50
-73 0 -5 9 -17 20 -27 11 -10 20 -22 20 -27 0 -5 13 -23 30 -41 16 -18 30 -37
30 -43 0 -6 9 -19 20 -29 11 -10 20 -22 20 -27 0 -5 23 -38 50 -73 28 -35 50
-67 50 -70 0 -3 23 -35 50 -70 28 -35 50 -68 50 -73 0 -5 9 -17 20 -27 11 -10
20 -22 20 -27 0 -5 23 -38 50 -73 28 -35 50 -67 50 -70 0 -3 23 -35 50 -70 28
-35 50 -68 50 -73 0 -5 9 -17 20 -27 11 -10 20 -22 20 -27 0 -5 23 -38 50 -73
28 -35 50 -67 50 -70 0 -3 23 -35 50 -70 28 -35 50 -68 50 -73 0 -5 9 -17 20
-27 11 -10 20 -22 20 -27 0 -5 23 -38 50 -73 28 -35 50 -67 50 -70 0 -3 23
-35 50 -70 28 -35 50 -68 50 -73 0 -5 9 -17 20 -27 11 -10 20 -22 20 -26 0 -5
6 -17 14 -26 33 -40 86 -114 86 -118 0 -3 23 -35 50 -70 28 -35 50 -68 50 -73
0 -5 9 -17 20 -27 11 -10 20 -22 20 -26 0 -5 6 -17 14 -26 33 -40 86 -114 86
-118 0 -3 23 -35 50 -70 28 -35 50 -68 50 -73 0 -5 9 -17 20 -27 11 -10 20
-22 20 -27 0 -5 13 -23 30 -41 16 -18 30 -37 30 -43 0 -6 9 -19 20 -29 11 -10
20 -22 20 -27 0 -5 23 -38 50 -73 28 -35 50 -68 50 -73 0 -5 9 -17 20 -27 11
-10 20 -22 20 -27 0 -5 13 -23 30 -41 16 -18 30 -37 30 -43 0 -6 9 -19 20 -29
11 -10 20 -22 20 -27 0 -5 23 -38 50 -73 28 -35 50 -67 50 -70 0 -3 23 -35 50
-70 28 -35 50 -68 50 -73 0 -5 9 -17 20 -27 11 -10 20 -22 20 -27 0 -5 21 -37
48 -71 59 -78 79 -115 66 -127 -5 -5 -70 -14 -144 -20 -74 -6 -180 -15 -235
-20 -55 -5 -152 -14 -215 -20 -63 -6 -162 -15 -220 -21 -140 -13 -278 -25
-433 -38 -70 -6 -131 -12 -135 -15 -5 -3 -39 -6 -78 -7 -38 -1 -90 -5 -115
-10 -25 -4 -74 -9 -110 -10 -35 -1 -86 -5 -114 -10 -27 -4 -86 -10 -130 -13
-44 -3 -127 -10 -185 -16 -58 -5 -156 -14 -217 -20 -62 -5 -162 -15 -223 -20
-60 -5 -159 -14 -220 -20 -60 -6 -161 -15 -222 -20 -62 -6 -160 -15 -218 -21
-58 -5 -154 -14 -215 -20 -60 -5 -155 -14 -210 -18 -55 -5 -158 -14 -228 -20
-70 -6 -131 -12 -135 -15 -5 -3 -39 -6 -78 -7 -38 -1 -90 -5 -115 -10 -25 -4
-74 -9 -110 -10 -35 -1 -86 -5 -114 -10 -27 -4 -84 -10 -125 -13 -41 -3 -124
-10 -185 -16 -60 -5 -164 -14 -230 -20 -66 -5 -134 -13 -151 -16 -47 -9 -50
10 -14 84 18 37 36 76 40 87 4 11 31 70 60 130 29 61 56 119 60 130 4 11 31
70 60 130 29 61 56 119 60 130 4 11 31 70 60 130 29 61 56 119 60 130 4 11 31
70 60 130 29 61 56 119 60 130 4 11 31 70 60 130 29 61 56 119 60 130 4 11 31
70 60 130 29 61 56 119 60 130 4 11 31 70 60 130 29 61 56 119 60 130 4 11 31
70 60 130 29 61 56 119 60 130 4 11 31 70 60 130 29 61 56 119 60 130 4 11 31
70 60 130 29 61 56 119 60 130 4 11 31 67 59 125 28 58 51 109 51 114 0 5 22
54 49 110 27 55 56 119 66 141 9 22 36 81 60 130 23 50 50 108 60 130 9 22 36
81 60 130 23 50 50 108 60 130 9 22 36 81 60 130 23 50 50 108 60 130 9 22 36
81 60 130 23 50 50 108 60 130 9 22 36 81 60 130 23 50 50 108 60 130 48 112
68 145 86 145 11 0 19 -4 19 -10z"/>
<path d="M4890 7355 c0 -8 -4 -23 -9 -33 -18 -35 -114 -238 -121 -257 -4 -11
-31 -69 -60 -130 -29 -60 -56 -119 -60 -130 -4 -11 -31 -69 -60 -130 -29 -60
-56 -119 -60 -130 -4 -11 -31 -69 -60 -130 -29 -60 -56 -119 -60 -130 -4 -11
-31 -69 -60 -130 -29 -60 -56 -119 -60 -130 -4 -11 -31 -69 -60 -130 -29 -60
-56 -119 -60 -130 -4 -11 -31 -69 -60 -130 -29 -60 -56 -119 -60 -130 -4 -11
-31 -69 -60 -130 -29 -60 -56 -119 -60 -130 -4 -11 -31 -69 -60 -130 -29 -60
-56 -119 -60 -130 -4 -11 -31 -69 -60 -130 -29 -60 -56 -119 -60 -130 -4 -11
-31 -69 -60 -130 -29 -60 -56 -119 -60 -130 -4 -11 -31 -69 -60 -130 -29 -60
-56 -119 -60 -130 -4 -11 -26 -58 -48 -105 -22 -47 -48 -103 -57 -125 -9 -22
-36 -80 -60 -130 -23 -49 -50 -108 -60 -130 -9 -22 -36 -80 -60 -130 -23 -49
-50 -108 -60 -130 -9 -22 -36 -80 -60 -130 -23 -49 -50 -108 -60 -130 -9 -22
-36 -80 -60 -130 -23 -49 -50 -108 -60 -130 -9 -22 -33 -73 -52 -113 -21 -42
-32 -77 -27 -82 5 -4 56 -4 114 0 288 23 361 30 368 34 5 3 39 6 78 7 38 1 90
5 115 10 25 4 74 9 110 10 35 1 87 5 114 10 28 4 86 10 130 13 44 3 127 10
185 16 58 5 156 14 218 20 61 5 162 14 222 20 61 6 160 15 220 20 61 6 161 15
223 20 61 6 159 15 217 21 58 5 155 14 215 20 61 5 155 14 210 18 55 5 158 14
228 20 70 6 131 12 135 15 5 3 39 6 78 7 38 1 90 5 115 10 25 4 74 9 110 10
35 1 87 5 114 10 28 4 84 10 125 13 72 6 169 14 410 36 61 5 160 14 220 20 61
5 160 14 220 20 61 5 158 14 218 20 59 5 160 14 225 20 66 5 123 12 128 16 16
9 10 29 -21 64 -16 19 -29 39 -30 43 0 4 -22 37 -50 72 -27 35 -50 68 -50 73
0 5 -9 17 -20 27 -11 10 -20 22 -20 27 0 5 -22 38 -50 73 -27 35 -50 67 -50
70 0 3 -22 35 -50 70 -27 35 -50 68 -50 73 0 5 -9 17 -20 27 -11 10 -20 22
-20 27 0 5 -22 38 -50 73 -27 35 -50 67 -50 70 0 3 -22 35 -50 70 -27 35 -50
68 -50 73 0 5 -9 17 -20 27 -11 10 -20 22 -20 27 0 5 -22 38 -50 73 -27 35
-50 67 -50 70 0 3 -22 35 -50 70 -27 35 -50 68 -50 73 0 5 -9 17 -20 27 -11
10 -20 22 -20 26 0 5 -6 17 -14 26 -33 40 -86 114 -86 118 0 3 -22 35 -50 70
-27 35 -50 68 -50 73 0 5 -9 17 -20 27 -11 10 -20 22 -20 26 0 5 -6 17 -14 26
-33 40 -86 114 -86 118 0 3 -22 35 -50 70 -27 35 -50 68 -50 73 0 5 -9 17 -20
27 -11 10 -20 22 -20 27 0 5 -13 23 -30 41 -16 18 -30 37 -30 43 0 6 -9 19
-20 29 -11 10 -20 22 -20 27 0 5 -22 38 -50 73 -27 35 -50 68 -50 73 0 5 -9
17 -20 27 -11 10 -20 22 -20 27 0 5 -13 23 -30 41 -16 18 -30 37 -30 43 0 6
-9 19 -20 29 -11 10 -20 22 -20 27 0 5 -22 38 -50 73 -27 35 -50 67 -50 70 0
3 -22 35 -50 70 -27 35 -50 68 -50 73 0 5 -9 17 -20 27 -11 10 -20 22 -20 27
0 5 -22 38 -50 73 -27 35 -50 67 -50 70 0 3 -22 35 -50 70 -27 35 -50 68 -50
73 0 5 -9 17 -20 27 -11 10 -20 22 -20 27 0 5 -22 38 -50 73 -27 35 -50 67
-50 70 0 3 -22 35 -50 70 -27 35 -50 68 -50 73 0 5 -9 17 -20 27 -11 10 -20
22 -20 27 0 5 -22 38 -50 73 -27 35 -50 67 -50 70 0 3 -22 35 -50 70 -27 35
-50 68 -50 73 0 5 -9 17 -20 27 -11 10 -20 22 -20 26 0 5 -6 17 -14 26 -33 40
-86 114 -86 118 0 3 -22 35 -50 70 -27 35 -50 68 -50 73 0 12 -34 42 -48 42
-7 0 -12 -7 -12 -15z m37 -212 c4 -10 20 -31 35 -48 15 -16 28 -34 28 -38 0
-4 23 -37 50 -72 28 -35 50 -67 50 -70 0 -3 13 -20 30 -38 16 -18 30 -35 30
-39 0 -4 36 -55 80 -113 44 -58 80 -109 80 -113 0 -5 14 -21 30 -37 17 -16 30
-33 30 -37 0 -5 23 -38 50 -73 28 -35 50 -67 50 -70 0 -3 13 -20 30 -38 16
-18 30 -36 30 -40 0 -4 23 -37 50 -72 28 -35 50 -67 50 -70 0 -3 13 -20 30
-38 16 -18 30 -35 30 -39 0 -4 36 -55 80 -113 44 -58 80 -107 80 -110 0 -3 36
-52 80 -110 44 -58 80 -109 80 -113 0 -5 14 -21 30 -37 17 -16 30 -33 30 -37
0 -5 23 -38 50 -73 28 -35 50 -67 50 -70 0 -3 13 -20 30 -38 16 -18 30 -36 30
-40 0 -4 23 -37 50 -72 28 -35 50 -67 50 -70 0 -3 13 -20 30 -38 16 -18 30
-35 30 -39 0 -4 36 -55 80 -113 44 -58 80 -109 80 -113 0 -5 14 -21 30 -37 17
-16 30 -33 30 -37 0 -5 23 -38 50 -73 28 -35 50 -67 50 -70 0 -3 13 -20 30
-38 16 -18 30 -36 30 -40 0 -4 23 -37 50 -72 28 -35 50 -67 50 -70 0 -3 13
-20 30 -38 16 -18 30 -35 30 -39 0 -4 36 -55 80 -113 44 -58 80 -109 80 -113
0 -5 14 -21 30 -37 17 -16 30 -33 30 -37 0 -5 23 -38 50 -73 28 -35 50 -67 50
-70 0 -3 13 -20 30 -38 16 -18 30 -36 30 -40 0 -4 23 -37 50 -72 28 -35 50
-67 50 -70 0 -3 13 -20 30 -38 16 -18 30 -35 30 -39 0 -4 32 -49 70 -100 39
-51 69 -100 68 -108 -3 -15 -37 -23 -153 -34 -278 -27 -414 -41 -480 -50 -50
-7 -123 -15 -200 -21 -67 -6 -225 -23 -450 -50 -22 -2 -69 -7 -105 -10 -36 -3
-104 -10 -152 -15 -135 -15 -258 -29 -308 -35 -25 -3 -90 -10 -145 -15 -94 -9
-155 -15 -380 -41 -49 -5 -133 -14 -185 -19 -52 -5 -135 -14 -185 -19 -221
-25 -286 -32 -375 -41 -52 -5 -137 -14 -187 -20 -51 -5 -135 -15 -185 -20 -51
-6 -136 -15 -188 -19 -52 -5 -113 -12 -135 -15 -56 -8 -195 -22 -444 -47 -57
-5 -107 -11 -110 -13 -3 -2 -52 -7 -108 -11 -91 -6 -103 -5 -103 9 0 9 4 24 9
34 15 29 73 156 81 177 4 11 21 49 38 85 16 36 36 81 43 100 7 19 26 59 41 89
15 29 28 58 28 65 0 6 18 47 40 91 22 44 40 85 40 91 0 6 18 46 40 89 22 43
40 83 40 90 0 7 18 47 40 90 22 43 40 83 40 90 0 7 14 41 31 76 18 35 35 73
39 84 4 11 22 52 40 90 18 39 36 79 40 90 4 11 22 52 40 90 18 39 36 79 40 90
4 11 22 52 40 90 18 39 36 79 40 90 4 11 21 49 38 85 16 36 36 81 43 100 7 19
26 59 41 89 15 29 28 58 28 65 0 6 18 47 40 91 22 44 40 85 40 91 0 6 18 46
40 89 22 43 40 83 40 90 0 7 14 41 31 76 18 35 35 73 39 84 4 11 22 52 40 90
18 39 36 79 40 90 4 11 22 52 40 90 18 39 36 79 40 90 4 11 22 52 40 90 18 39
36 79 40 90 4 11 21 49 38 85 16 36 36 81 43 100 7 19 26 59 41 89 15 29 28
58 28 65 0 6 18 47 40 91 22 44 40 85 40 91 0 6 18 46 40 89 22 43 40 83 40
90 0 7 18 47 40 90 22 43 40 83 40 90 0 11 34 82 53 113 12 18 37 15 44 -5z"/>
<path d="M4882 7100 c-6 -11 -12 -25 -12 -32 0 -7 -18 -49 -40 -93 -22 -44
-40 -85 -40 -91 0 -6 -18 -46 -40 -89 -22 -43 -40 -83 -40 -90 0 -7 -14 -41
-31 -76 -18 -35 -35 -73 -39 -84 -4 -11 -22 -51 -40 -90 -18 -38 -36 -79 -40
-90 -4 -11 -22 -51 -40 -90 -18 -38 -36 -79 -40 -90 -4 -11 -22 -51 -40 -90
-18 -38 -36 -79 -40 -90 -4 -11 -21 -49 -38 -85 -16 -36 -36 -81 -43 -100 -7
-19 -26 -59 -41 -89 -15 -29 -28 -58 -28 -65 0 -6 -18 -47 -40 -91 -22 -44
-40 -85 -40 -91 0 -6 -18 -46 -40 -89 -22 -43 -40 -83 -40 -90 0 -7 -14 -41
-31 -76 -18 -35 -35 -73 -39 -84 -4 -11 -22 -51 -40 -90 -18 -38 -36 -79 -40
-90 -4 -11 -22 -51 -40 -90 -18 -38 -36 -79 -40 -90 -4 -11 -22 -51 -40 -90
-18 -38 -36 -79 -40 -90 -4 -11 -21 -49 -38 -85 -16 -36 -36 -81 -43 -100 -7
-19 -26 -59 -41 -89 -15 -29 -28 -58 -28 -63 0 -5 -17 -47 -39 -91 -21 -45
-45 -98 -52 -117 -7 -19 -26 -59 -41 -89 -15 -29 -28 -59 -28 -66 0 -7 -18
-47 -40 -90 -22 -43 -40 -83 -40 -90 0 -7 -14 -41 -31 -76 -18 -35 -35 -73
-39 -84 -4 -11 -22 -51 -40 -90 -18 -38 -36 -79 -40 -90 -4 -11 -22 -51 -40
-90 -18 -38 -36 -79 -40 -90 -4 -11 -22 -51 -40 -90 -18 -38 -37 -80 -43 -92
-5 -12 -7 -28 -4 -36 6 -17 -1 -18 302 18 22 2 69 7 105 10 71 6 225 23 455
50 22 2 69 7 105 10 71 6 225 23 455 50 22 2 69 7 105 10 36 3 106 10 155 16
197 22 262 29 305 34 25 3 90 10 145 15 55 5 141 14 190 19 229 26 286 32 375
41 52 5 137 14 188 20 50 5 134 15 185 20 50 6 135 15 187 20 52 5 137 14 188
20 50 5 134 15 185 20 50 6 135 15 187 20 52 5 136 14 185 19 119 14 263 29
381 40 53 6 101 14 106 19 11 11 -5 43 -44 87 -16 16 -28 33 -28 37 0 4 -36
55 -80 113 -44 58 -80 107 -80 110 0 3 -36 52 -80 110 -44 58 -80 109 -80 113
0 5 -13 21 -30 37 -16 16 -30 33 -30 37 0 5 -22 38 -50 73 -27 35 -50 67 -50
70 0 3 -13 20 -30 38 -16 18 -30 36 -30 40 0 4 -22 37 -50 72 -27 35 -50 67
-50 70 0 3 -13 20 -30 38 -16 18 -30 35 -30 39 0 4 -36 55 -80 113 -44 58 -80
109 -80 113 0 5 -13 21 -30 37 -16 16 -30 33 -30 37 0 5 -22 38 -50 73 -27 35
-50 67 -50 70 0 3 -13 20 -30 38 -16 18 -30 36 -30 40 0 4 -22 37 -50 72 -27
35 -50 67 -50 70 0 3 -13 20 -30 38 -16 18 -30 35 -30 39 0 4 -36 55 -80 113
-44 58 -80 107 -80 110 0 3 -36 52 -80 110 -44 58 -80 109 -80 113 0 5 -13 21
-30 37 -16 16 -30 33 -30 37 0 5 -22 38 -50 73 -27 35 -50 67 -50 70 0 3 -13
20 -30 38 -16 18 -30 36 -30 40 0 4 -22 37 -50 72 -27 35 -50 67 -50 70 0 3
-13 20 -30 38 -16 18 -30 35 -30 39 0 4 -36 55 -80 113 -44 58 -80 109 -80
113 0 5 -13 21 -30 37 -16 16 -30 33 -30 37 0 5 -22 38 -50 73 -27 35 -50 67
-50 70 0 3 -13 20 -30 38 -16 18 -30 36 -30 40 0 4 -22 37 -50 72 -27 35 -50
67 -50 70 0 3 -13 20 -30 38 -16 18 -30 37 -31 42 0 13 -92 128 -104 132 -6 2
-16 -6 -23 -17z m55 -222 c18 -18 33 -37 33 -43 0 -6 14 -24 30 -40 17 -16 30
-34 30 -40 0 -6 14 -24 30 -40 17 -16 30 -34 30 -40 0 -6 14 -24 30 -40 17
-16 30 -34 30 -40 0 -6 14 -24 30 -40 17 -16 30 -33 30 -37 0 -5 13 -23 30
-41 16 -18 30 -36 30 -40 0 -4 13 -22 30 -40 16 -18 30 -36 30 -40 0 -4 13
-22 30 -40 16 -18 30 -36 30 -40 0 -4 13 -22 30 -40 16 -18 30 -36 30 -40 0
-4 13 -22 30 -40 16 -18 30 -36 30 -40 0 -5 7 -15 15 -23 8 -9 154 -201 324
-428 170 -226 316 -418 325 -425 9 -7 16 -19 16 -25 0 -7 14 -25 30 -41 17
-16 30 -34 30 -40 0 -6 14 -24 30 -40 17 -16 30 -34 30 -40 0 -6 14 -24 30
-40 17 -16 30 -34 30 -40 0 -6 14 -24 30 -40 17 -16 30 -34 30 -40 0 -6 14
-24 30 -40 17 -16 30 -33 30 -37 0 -5 13 -23 30 -41 16 -18 30 -36 30 -40 0
-4 13 -22 30 -40 16 -18 30 -36 30 -40 0 -4 13 -22 30 -40 16 -18 30 -36 30
-40 0 -4 13 -22 30 -40 16 -18 30 -36 30 -40 0 -5 7 -15 15 -23 45 -46 576
-767 572 -778 -3 -8 -43 -17 -109 -25 -56 -6 -132 -16 -168 -21 -36 -5 -110
-14 -165 -20 -55 -7 -111 -14 -125 -16 -14 -2 -63 -8 -110 -13 -88 -11 -189
-23 -332 -41 -93 -12 -209 -26 -330 -39 -46 -5 -99 -12 -118 -15 -19 -3 -57
-8 -85 -11 -160 -19 -268 -33 -447 -55 -93 -12 -209 -26 -330 -39 -46 -5 -99
-12 -118 -15 -19 -3 -57 -8 -85 -11 -160 -19 -268 -33 -447 -55 -88 -12 -203
-25 -333 -39 -44 -5 -96 -12 -115 -15 -19 -3 -57 -8 -85 -11 -126 -15 -216
-26 -285 -35 -222 -29 -227 -28 -195 34 8 15 15 34 15 41 0 7 10 33 21 57 12
23 25 52 29 63 4 11 18 43 30 70 12 28 26 59 30 70 4 11 17 40 29 63 11 24 21
49 21 55 0 7 14 39 30 72 17 33 30 65 30 71 0 7 14 38 30 69 17 31 30 63 30
70 0 7 14 39 30 70 17 31 30 63 30 70 0 7 10 33 21 57 12 23 25 52 29 63 4 11
17 40 29 63 11 24 21 49 21 55 0 7 14 39 30 72 17 33 30 64 30 70 0 5 14 37
30 70 17 33 30 65 30 71 0 7 14 38 30 69 17 31 30 63 30 70 0 7 14 39 30 70
17 31 30 63 30 70 0 7 10 33 21 57 12 23 25 52 29 63 4 11 17 40 29 63 11 24
21 49 21 55 0 7 14 39 30 72 17 33 30 64 30 70 0 5 14 37 30 70 17 33 30 65
30 71 0 7 14 38 30 69 17 31 30 63 30 70 0 7 14 39 30 70 17 31 30 63 30 70 0
7 10 33 21 57 12 23 25 52 29 63 4 11 17 40 29 63 11 24 21 49 21 55 0 7 14
39 30 72 17 33 30 65 30 71 0 7 14 38 30 69 17 31 30 63 30 70 0 7 14 39 30
70 17 31 30 63 30 70 0 7 14 39 30 70 17 31 30 63 30 70 0 7 10 33 21 57 12
23 25 52 29 63 4 11 17 40 29 63 11 24 21 49 21 55 0 7 14 39 30 72 17 33 30
67 30 76 0 39 25 38 67 -3z"/>
<path d="M4873 6822 c-13 -26 -23 -53 -23 -59 0 -6 -10 -31 -21 -55 -12 -23
-25 -52 -29 -63 -4 -11 -18 -42 -30 -70 -12 -27 -26 -59 -30 -70 -4 -11 -17
-40 -29 -63 -11 -24 -21 -49 -21 -55 0 -7 -14 -39 -30 -72 -17 -33 -30 -65
-30 -71 0 -7 -13 -38 -30 -69 -16 -31 -30 -63 -30 -70 0 -7 -13 -39 -30 -70
-16 -31 -30 -63 -30 -70 0 -7 -10 -33 -21 -57 -12 -23 -25 -52 -29 -63 -4 -11
-17 -40 -29 -63 -11 -24 -21 -49 -21 -55 0 -7 -14 -39 -30 -72 -17 -33 -30
-64 -30 -70 0 -5 -14 -37 -30 -70 -17 -33 -30 -65 -30 -71 0 -7 -13 -38 -30
-69 -16 -31 -30 -63 -30 -70 0 -7 -13 -39 -30 -70 -16 -31 -30 -63 -30 -70 0
-7 -10 -33 -21 -57 -12 -23 -25 -52 -29 -63 -4 -11 -17 -40 -29 -63 -11 -24
-21 -49 -21 -55 0 -7 -14 -39 -30 -72 -17 -33 -30 -64 -30 -70 0 -5 -14 -37
-30 -70 -17 -33 -30 -65 -30 -71 0 -7 -13 -38 -30 -69 -16 -31 -30 -63 -30
-70 0 -7 -13 -39 -30 -70 -16 -31 -30 -63 -30 -70 0 -7 -10 -33 -21 -57 -12
-23 -25 -52 -29 -63 -4 -11 -17 -40 -29 -63 -11 -24 -21 -49 -21 -55 0 -7 -14
-39 -30 -72 -17 -33 -30 -65 -30 -71 0 -7 -13 -38 -30 -69 -16 -31 -30 -63
-30 -70 0 -7 -13 -39 -30 -70 -16 -31 -30 -63 -30 -70 0 -7 -13 -39 -30 -70
-16 -31 -30 -63 -30 -70 0 -7 -10 -33 -21 -57 -12 -23 -25 -52 -29 -63 -4 -11
-17 -40 -29 -63 -11 -24 -21 -48 -21 -53 0 -5 -10 -30 -21 -54 -12 -25 -19
-48 -16 -51 3 -3 36 -1 74 5 37 6 91 13 118 16 28 4 85 11 128 16 83 10 187
23 320 39 98 13 211 26 327 39 47 5 101 12 120 15 19 3 58 8 85 11 160 19 268
33 448 55 92 12 208 26 330 39 45 5 98 12 117 15 19 3 58 8 85 11 160 19 268
33 448 55 98 13 211 26 327 39 47 5 101 12 120 15 19 3 58 8 85 11 160 19 268
33 448 55 80 11 199 25 305 37 57 6 62 11 32 38 -11 10 -20 23 -20 30 0 6 -13
24 -30 40 -16 16 -30 34 -30 40 0 6 -13 24 -30 40 -16 16 -30 34 -30 40 0 6
-13 24 -30 40 -16 16 -30 34 -30 40 0 6 -13 24 -30 40 -16 16 -30 33 -30 37 0
5 -13 23 -30 41 -16 18 -30 36 -30 40 0 4 -13 22 -30 40 -16 18 -30 36 -30 40
0 4 -13 22 -30 40 -16 18 -30 36 -30 40 0 4 -13 22 -30 40 -16 18 -30 36 -30
40 0 5 -7 15 -15 23 -8 9 -154 201 -324 428 -170 226 -316 418 -325 425 -9 7
-16 19 -16 25 0 7 -13 25 -30 41 -16 16 -30 34 -30 40 0 6 -13 24 -30 40 -16
16 -30 34 -30 40 0 6 -13 24 -30 40 -16 16 -30 34 -30 40 0 6 -13 24 -30 40
-16 16 -30 34 -30 40 0 6 -13 24 -30 40 -16 16 -30 33 -30 37 0 5 -13 23 -30
41 -16 18 -30 36 -30 40 0 4 -13 22 -30 40 -16 18 -30 36 -30 40 0 4 -13 22
-30 40 -16 18 -30 36 -30 40 0 4 -13 22 -30 40 -16 18 -30 37 -30 44 0 6 -4
13 -9 15 -5 2 -147 188 -316 413 -169 226 -312 411 -319 413 -6 1 -21 -19 -33
-46z m69 -189 c15 -15 28 -32 28 -39 0 -7 4 -14 8 -16 5 -1 30 -30 55 -64 25
-33 53 -66 61 -74 9 -7 16 -18 16 -25 0 -8 4 -15 8 -17 5 -1 30 -30 55 -64 25
-33 53 -66 61 -74 9 -7 16 -18 16 -25 0 -8 4 -15 8 -17 5 -1 30 -30 55 -64 25
-33 53 -66 61 -74 9 -7 16 -18 16 -25 0 -8 4 -15 8 -17 5 -1 30 -30 55 -64 25
-33 53 -66 61 -74 9 -7 16 -18 16 -25 0 -8 4 -15 8 -17 5 -1 30 -30 55 -64 25
-33 53 -66 61 -74 9 -7 16 -18 16 -25 0 -8 4 -15 8 -17 5 -1 30 -30 55 -64 25
-33 53 -66 61 -74 9 -7 16 -18 16 -25 0 -8 4 -15 8 -17 5 -1 30 -30 55 -64 25
-33 53 -66 61 -74 9 -7 16 -18 16 -25 0 -8 4 -15 8 -17 5 -1 30 -30 55 -64 25
-33 53 -66 61 -74 9 -7 16 -18 16 -25 0 -8 4 -15 8 -17 5 -1 30 -30 55 -64 25
-33 53 -66 61 -74 9 -7 16 -18 16 -25 0 -8 4 -15 8 -17 5 -1 30 -30 55 -64 25
-33 53 -66 61 -74 9 -7 16 -18 16 -25 0 -8 4 -15 8 -17 5 -1 30 -30 55 -64 25
-33 53 -66 61 -74 9 -7 16 -18 16 -25 0 -8 4 -15 8 -17 5 -1 30 -30 55 -64 25
-33 53 -66 61 -74 9 -7 16 -18 16 -25 0 -8 4 -15 8 -17 5 -1 30 -30 55 -64 25
-33 53 -66 61 -74 9 -7 16 -18 16 -25 0 -8 4 -15 8 -17 5 -1 30 -30 55 -64 25
-33 53 -66 61 -74 9 -7 16 -18 16 -25 0 -8 4 -15 8 -17 17 -6 82 -100 82 -116
0 -15 -27 -21 -172 -40 -95 -13 -198 -27 -228 -32 -55 -10 -74 -12 -210 -29
-41 -6 -154 -21 -250 -35 -240 -34 -245 -35 -330 -45 -41 -6 -154 -21 -250
-35 -240 -34 -245 -35 -330 -45 -41 -6 -154 -21 -250 -35 -240 -34 -245 -35
-330 -45 -41 -6 -154 -21 -250 -35 -241 -34 -245 -35 -330 -45 -41 -6 -154
-21 -250 -35 -251 -37 -258 -36 -225 28 8 15 15 34 15 42 0 7 9 29 20 49 11
20 20 42 20 50 0 8 9 30 20 50 11 20 20 42 20 50 0 8 9 30 20 50 11 20 20 40
20 45 0 6 9 32 21 58 12 26 24 56 29 67 4 11 17 40 29 63 11 24 21 50 21 58 0
7 9 29 20 49 11 20 20 42 20 50 0 8 9 30 20 50 11 20 20 42 20 50 0 8 9 30 20
50 11 20 20 40 20 46 0 5 9 29 20 51 11 23 20 47 20 52 0 6 14 38 30 71 17 33
30 65 30 72 0 7 9 28 20 48 11 20 20 42 20 50 0 8 9 30 20 50 11 20 20 42 20
50 0 8 9 30 20 50 11 20 20 42 20 50 0 8 9 30 20 50 11 20 20 41 20 48 0 7 14
39 30 72 17 33 30 65 30 72 0 7 9 28 20 48 11 20 20 42 20 50 0 8 9 30 20 50
11 20 20 42 20 50 0 8 9 30 20 50 11 20 20 42 20 50 0 8 9 30 20 50 11 20 20
40 20 45 0 6 9 32 21 58 12 26 24 56 29 67 4 11 17 40 29 63 11 24 21 50 21
58 0 7 9 29 20 49 11 20 20 42 20 50 0 8 9 30 20 50 11 20 20 42 20 50 0 8 9
30 20 50 11 20 20 40 20 46 0 5 9 29 20 51 11 23 20 47 20 52 0 6 14 38 30 71
17 33 30 65 30 72 0 7 9 28 20 48 11 20 20 42 20 50 0 8 9 30 20 50 11 20 20
41 20 48 0 19 44 107 54 107 6 0 23 -12 38 -27z"/>
<path d="M4897 6613 c-4 -3 -7 -14 -7 -24 0 -10 -9 -34 -20 -54 -11 -20 -20
-41 -20 -48 0 -7 -14 -39 -30 -72 -17 -33 -30 -65 -30 -72 0 -7 -9 -28 -20
-48 -11 -20 -20 -42 -20 -50 0 -8 -9 -30 -20 -50 -11 -20 -20 -42 -20 -50 0
-8 -9 -30 -20 -50 -11 -20 -20 -42 -20 -50 0 -8 -9 -30 -20 -50 -11 -20 -20
-40 -20 -45 0 -6 -9 -32 -21 -58 -12 -26 -24 -56 -29 -67 -4 -11 -17 -40 -29
-63 -11 -24 -21 -50 -21 -58 0 -7 -9 -29 -20 -49 -11 -20 -20 -42 -20 -50 0
-8 -9 -30 -20 -50 -11 -20 -20 -42 -20 -50 0 -8 -9 -30 -20 -50 -11 -20 -20
-40 -20 -46 0 -5 -9 -29 -20 -51 -11 -23 -20 -47 -20 -52 0 -6 -14 -38 -30
-71 -17 -33 -30 -65 -30 -72 0 -7 -9 -28 -20 -48 -11 -20 -20 -42 -20 -50 0
-8 -9 -30 -20 -50 -11 -20 -20 -42 -20 -50 0 -8 -9 -30 -20 -50 -11 -20 -20
-42 -20 -50 0 -8 -9 -30 -20 -50 -11 -20 -20 -41 -20 -48 0 -7 -14 -39 -30
-72 -17 -33 -30 -65 -30 -72 0 -7 -9 -28 -20 -48 -11 -20 -20 -42 -20 -50 0
-8 -9 -30 -20 -50 -11 -20 -20 -42 -20 -50 0 -8 -9 -30 -20 -50 -11 -20 -20
-42 -20 -50 0 -8 -9 -30 -20 -50 -11 -20 -20 -40 -20 -45 0 -6 -9 -32 -21 -58
-12 -26 -24 -56 -29 -67 -4 -11 -17 -40 -29 -63 -11 -24 -21 -50 -21 -58 0 -7
-9 -29 -20 -49 -11 -20 -20 -42 -20 -50 0 -8 -9 -30 -20 -50 -11 -20 -20 -42
-20 -50 0 -8 -9 -30 -20 -50 -11 -20 -20 -40 -20 -46 0 -5 -9 -29 -20 -51 -11
-23 -20 -46 -20 -50 0 -5 -9 -28 -20 -50 -27 -56 -26 -60 13 -53 17 3 66 9
107 15 41 5 154 20 250 34 240 34 245 35 330 45 41 6 154 21 250 35 240 34
245 35 330 45 41 6 154 21 250 35 240 34 245 35 330 45 64 8 159 22 470 66 81
12 174 24 250 34 41 5 122 16 180 25 133 19 167 24 260 36 41 5 84 12 95 14
11 2 66 10 123 17 56 7 102 14 102 16 0 7 -25 48 -38 62 -8 8 -31 37 -51 65
-21 28 -45 57 -54 65 -10 7 -17 19 -17 26 0 8 -4 15 -8 17 -5 2 -30 30 -55 64
-25 33 -53 66 -61 74 -9 7 -16 18 -16 25 0 8 -4 15 -8 17 -5 2 -30 30 -55 64
-25 33 -53 66 -61 74 -9 7 -16 18 -16 25 0 8 -4 15 -8 17 -5 2 -30 30 -55 64
-25 33 -53 66 -61 74 -9 7 -16 18 -16 25 0 8 -4 15 -8 17 -5 2 -30 30 -55 64
-25 33 -53 66 -61 74 -9 7 -16 18 -16 25 0 8 -4 15 -8 17 -5 2 -30 30 -55 64
-25 33 -53 66 -61 74 -9 7 -16 18 -16 25 0 8 -4 15 -8 17 -5 2 -30 30 -55 64
-25 33 -53 66 -61 74 -9 7 -16 18 -16 25 0 8 -4 15 -8 17 -5 2 -30 30 -55 64
-25 33 -53 66 -61 74 -9 7 -16 18 -16 25 0 8 -4 15 -8 17 -5 2 -30 30 -55 64
-25 33 -53 66 -61 74 -9 7 -16 18 -16 25 0 8 -4 15 -8 17 -5 2 -30 30 -55 64
-25 33 -53 66 -61 74 -9 7 -16 18 -16 25 0 8 -4 15 -8 17 -5 2 -30 30 -55 64
-25 33 -53 66 -61 74 -9 7 -16 18 -16 25 0 8 -4 15 -8 17 -5 2 -30 30 -55 64
-25 33 -53 66 -61 74 -9 7 -16 18 -16 25 0 8 -4 15 -8 17 -5 2 -30 30 -55 64
-25 33 -53 66 -61 74 -9 7 -16 18 -16 25 0 8 -4 15 -8 17 -5 2 -30 30 -55 64
-25 33 -53 66 -61 74 -9 7 -16 17 -16 22 0 5 -12 21 -26 36 -14 15 -33 39 -42
55 -16 26 -32 34 -45 20z m79 -254 c27 -34 65 -80 84 -104 48 -58 60 -73 100
-125 19 -24 41 -51 48 -58 7 -8 25 -30 40 -50 15 -21 33 -43 40 -50 7 -8 25
-30 40 -50 15 -21 33 -43 40 -50 7 -8 25 -30 40 -50 15 -21 33 -43 40 -50 7
-8 25 -30 40 -50 15 -21 44 -55 64 -77 21 -22 38 -44 38 -50 1 -5 19 -28 40
-50 22 -22 40 -44 40 -50 1 -5 19 -28 40 -50 22 -22 40 -44 40 -50 1 -5 19
-28 40 -50 22 -22 40 -44 40 -50 1 -5 19 -28 40 -50 22 -22 40 -44 40 -48 0
-4 16 -26 36 -47 20 -22 44 -50 52 -62 9 -13 29 -39 46 -59 17 -20 51 -62 76
-94 25 -31 61 -76 80 -100 19 -24 55 -69 80 -100 25 -31 61 -76 80 -100 19
-24 55 -69 80 -100 25 -31 61 -76 80 -100 19 -24 55 -69 80 -100 25 -31 64
-80 88 -108 23 -28 42 -54 42 -58 0 -10 -39 -18 -182 -40 -71 -10 -185 -28
-255 -39 -71 -10 -175 -26 -233 -35 -58 -8 -130 -19 -160 -25 -30 -5 -71 -12
-90 -14 -57 -7 -122 -17 -170 -26 -25 -5 -65 -11 -90 -14 -25 -3 -61 -8 -80
-11 -118 -20 -149 -25 -180 -29 -57 -7 -122 -17 -170 -26 -25 -5 -65 -11 -90
-14 -42 -5 -132 -19 -440 -66 -71 -11 -188 -29 -260 -40 -71 -11 -187 -29
-257 -39 -71 -11 -143 -23 -160 -27 -26 -5 -34 -3 -39 10 -4 10 -2 22 5 29 6
6 11 19 11 29 0 9 9 33 20 53 11 20 20 44 20 55 0 10 5 22 10 25 6 3 10 13 10
21 0 8 9 34 20 56 11 23 20 48 20 55 0 7 9 28 20 48 11 20 20 42 20 50 0 8 9
30 20 50 11 20 20 42 20 49 0 7 8 28 17 47 10 19 19 43 20 54 2 11 8 24 13 29
6 6 10 18 10 28 0 9 9 33 20 53 11 20 20 42 20 50 0 8 9 30 20 50 11 20 20 42
20 49 0 7 8 28 17 47 10 19 19 43 20 54 2 11 8 24 13 29 6 6 10 16 10 23 0 8
9 33 20 55 11 23 20 48 20 55 0 7 9 28 20 48 11 20 20 42 20 50 0 8 9 30 20
50 11 20 20 44 20 55 0 10 5 22 10 25 6 3 10 13 10 21 0 8 9 34 20 56 11 23
20 48 20 55 0 7 9 28 20 48 11 20 20 42 20 50 0 8 9 30 20 50 11 20 20 44 20
55 0 10 5 22 10 25 6 3 10 13 10 21 0 8 9 34 20 56 11 23 20 48 20 55 0 7 9
28 20 48 11 20 20 42 20 50 0 8 9 30 20 50 11 20 20 44 20 55 0 10 5 22 10 25
6 3 10 13 10 21 0 8 9 34 20 56 11 23 20 48 20 55 0 7 9 28 20 48 11 20 20 42
20 50 0 8 9 30 20 50 11 20 20 44 20 55 0 10 5 22 10 25 6 3 10 13 10 21 0 8
9 34 20 56 11 23 20 46 20 52 0 14 44 106 51 106 3 0 27 -27 55 -61z"/>
<path d="M4910 6350 c0 -11 -9 -35 -20 -55 -11 -20 -20 -42 -20 -50 0 -8 -9
-30 -20 -50 -11 -20 -20 -44 -20 -55 0 -10 -4 -22 -10 -25 -5 -3 -10 -13 -10
-21 0 -8 -9 -34 -20 -56 -11 -23 -20 -48 -20 -55 0 -7 -9 -28 -20 -48 -11 -20
-20 -42 -20 -50 0 -8 -9 -30 -20 -50 -11 -20 -20 -44 -20 -55 0 -10 -4 -22
-10 -25 -5 -3 -10 -13 -10 -21 0 -8 -9 -34 -20 -56 -11 -23 -20 -48 -20 -55 0
-7 -9 -28 -20 -48 -11 -20 -20 -42 -20 -50 0 -8 -9 -30 -20 -50 -11 -20 -20
-44 -20 -55 0 -10 -4 -22 -10 -25 -5 -3 -10 -13 -10 -21 0 -8 -9 -34 -20 -56
-11 -23 -20 -48 -20 -55 0 -7 -9 -28 -20 -48 -11 -20 -20 -42 -20 -50 0 -8 -9
-30 -20 -50 -11 -20 -20 -42 -20 -49 0 -7 -8 -28 -17 -47 -10 -19 -19 -43 -20
-54 -2 -11 -8 -24 -13 -29 -6 -6 -10 -18 -10 -28 0 -9 -9 -33 -20 -53 -11 -20
-20 -42 -20 -50 0 -8 -9 -30 -20 -50 -11 -20 -20 -42 -20 -50 0 -8 -9 -30 -20
-50 -11 -20 -20 -44 -20 -55 0 -10 -4 -22 -10 -25 -5 -3 -10 -13 -10 -21 0 -8
-9 -34 -20 -56 -11 -23 -20 -48 -20 -55 0 -7 -9 -28 -20 -48 -11 -20 -20 -42
-20 -50 0 -8 -9 -30 -20 -50 -11 -20 -20 -44 -20 -55 0 -10 -4 -22 -10 -25 -5
-3 -10 -13 -10 -21 0 -8 -9 -34 -20 -56 -11 -23 -20 -48 -20 -55 0 -7 -9 -28
-20 -48 -11 -20 -20 -42 -20 -50 0 -8 -9 -30 -20 -50 -11 -20 -20 -44 -20 -53
0 -10 -4 -22 -8 -28 -15 -18 -34 -86 -26 -94 8 -8 71 0 392 50 72 11 191 29
262 40 72 11 189 29 260 40 72 11 189 29 260 40 72 11 189 29 260 40 72 11
189 29 260 40 72 11 189 29 260 40 72 11 189 29 260 40 72 11 190 29 263 40
72 12 166 26 207 31 41 6 79 15 84 19 5 5 -9 28 -33 52 -22 24 -41 48 -41 53
-1 6 -19 28 -40 50 -22 22 -40 45 -40 50 -1 6 -19 28 -40 50 -22 22 -40 45
-40 50 -1 6 -19 28 -40 50 -22 22 -40 44 -40 48 0 4 -15 25 -34 45 -19 20 -47
54 -63 74 -56 74 -88 114 -118 149 -16 20 -50 62 -75 94 -25 31 -61 76 -80
100 -19 24 -55 69 -80 100 -25 31 -61 76 -80 100 -19 24 -55 69 -80 100 -25
31 -61 76 -80 100 -19 24 -55 69 -80 100 -25 31 -61 76 -80 100 -47 58 -60 73
-100 125 -19 24 -41 51 -48 58 -7 8 -25 30 -40 50 -15 21 -33 43 -40 50 -7 8
-25 30 -40 50 -15 21 -33 43 -40 50 -7 8 -25 30 -40 50 -15 21 -44 55 -64 77
-21 22 -38 45 -38 50 -1 6 -19 28 -40 50 -22 22 -40 43 -40 48 0 13 -53 67
-67 67 -7 0 -13 -9 -13 -20z m95 -241 c58 -73 110 -137 158 -193 23 -27 49
-59 57 -70 8 -12 30 -38 49 -58 18 -21 41 -48 50 -60 8 -13 31 -40 50 -60 18
-21 41 -48 49 -60 9 -13 34 -44 56 -69 23 -25 61 -72 86 -103 25 -32 63 -78
85 -103 22 -25 47 -55 55 -67 8 -12 30 -38 49 -58 18 -21 41 -48 50 -60 8 -13
31 -40 50 -60 18 -21 41 -48 49 -60 9 -13 34 -44 56 -69 23 -25 61 -72 86
-103 25 -32 63 -78 85 -103 22 -25 47 -55 55 -67 8 -12 30 -38 49 -58 18 -21
41 -48 50 -60 8 -13 31 -40 50 -60 40 -44 81 -103 81 -117 0 -9 -42 -20 -167
-41 -35 -5 -91 -15 -125 -20 -35 -6 -85 -15 -113 -20 -43 -8 -385 -67 -530
-91 -125 -21 -179 -30 -232 -39 -32 -5 -86 -14 -120 -20 -35 -5 -89 -14 -120
-20 -32 -5 -87 -14 -123 -20 -36 -6 -91 -15 -122 -20 -32 -6 -84 -14 -115 -20
-32 -5 -137 -23 -233 -40 -96 -17 -197 -34 -223 -37 l-49 -6 6 39 c4 21 11 43
16 48 6 6 10 20 10 32 0 13 5 26 10 29 6 3 10 13 10 21 0 8 9 34 20 56 11 23
20 50 20 59 0 10 5 21 10 24 6 3 10 15 10 25 0 11 9 35 20 55 11 20 20 44 20
55 0 10 5 22 10 25 6 3 10 15 10 25 0 11 9 35 20 55 11 20 20 44 20 55 0 10 5
22 10 25 6 3 10 14 10 24 0 10 8 33 17 52 10 19 19 43 20 54 2 11 8 24 13 29
6 6 10 20 10 32 0 13 5 26 10 29 6 3 10 13 10 21 0 8 9 34 20 56 11 23 20 50
20 59 0 10 5 21 10 24 6 3 10 13 10 21 0 8 9 34 20 56 11 23 20 50 20 59 0 10
5 21 10 24 6 3 10 15 10 25 0 11 9 35 20 55 11 20 20 44 20 55 0 10 5 22 10
25 6 3 10 15 10 25 0 11 9 35 20 55 11 20 20 44 20 55 0 10 5 22 10 25 6 3 10
14 10 24 0 10 8 33 17 52 10 19 19 43 20 54 2 11 8 24 13 29 6 6 10 20 10 32
0 13 5 26 10 29 6 3 10 13 10 21 0 8 9 34 20 56 11 23 20 50 20 59 0 10 5 21
10 24 6 3 10 15 10 25 0 11 9 35 20 55 11 20 20 44 20 55 0 10 5 22 10 25 6 3
10 14 10 23 0 29 44 112 60 111 8 0 33 -23 55 -50z"/>
<path d="M4937 6113 c-4 -3 -7 -14 -7 -24 0 -10 -9 -34 -20 -54 -11 -20 -20
-44 -20 -55 0 -10 -4 -22 -10 -25 -5 -3 -10 -14 -10 -24 0 -10 -8 -33 -17 -52
-10 -19 -19 -43 -20 -54 -2 -11 -8 -24 -13 -29 -6 -6 -10 -17 -10 -26 0 -10
-8 -32 -17 -51 -10 -19 -19 -43 -20 -54 -2 -11 -8 -24 -13 -29 -6 -6 -10 -20
-10 -32 0 -13 -4 -26 -10 -29 -5 -3 -10 -13 -10 -21 0 -8 -9 -34 -20 -56 -11
-23 -20 -50 -20 -59 0 -10 -4 -21 -10 -24 -5 -3 -10 -15 -10 -25 0 -11 -9 -35
-20 -55 -11 -20 -20 -44 -20 -55 0 -10 -4 -22 -10 -25 -5 -3 -10 -15 -10 -25
0 -11 -9 -35 -20 -55 -11 -20 -20 -44 -20 -55 0 -10 -4 -22 -10 -25 -5 -3 -10
-14 -10 -24 0 -10 -8 -33 -17 -52 -10 -19 -19 -43 -20 -54 -2 -11 -8 -24 -13
-29 -6 -6 -10 -20 -10 -32 0 -13 -4 -26 -10 -29 -5 -3 -10 -13 -10 -21 0 -8
-9 -34 -20 -56 -11 -23 -20 -50 -20 -59 0 -10 -4 -21 -10 -24 -5 -3 -10 -13
-10 -21 0 -8 -9 -34 -20 -56 -11 -23 -20 -50 -20 -59 0 -10 -4 -21 -10 -24 -5
-3 -10 -15 -10 -25 0 -11 -9 -35 -20 -55 -11 -20 -20 -44 -20 -55 0 -10 -4
-22 -10 -25 -5 -3 -10 -15 -10 -25 0 -11 -9 -35 -20 -55 -11 -20 -20 -44 -20
-55 0 -10 -4 -22 -10 -25 -5 -3 -10 -14 -10 -24 0 -10 -8 -33 -17 -52 -10 -19
-19 -43 -20 -54 -2 -11 -8 -24 -13 -29 -6 -6 -10 -18 -10 -28 0 -21 23 -23
101 -7 30 6 79 14 109 19 30 5 83 14 118 20 34 5 90 15 125 20 34 6 88 15 120
20 105 18 223 38 357 60 30 5 161 27 290 50 129 22 260 45 290 50 103 17 175
29 238 40 34 5 90 15 125 20 34 6 87 15 117 20 30 5 86 14 125 20 38 6 74 15
79 20 10 10 -18 53 -78 121 -23 25 -61 72 -86 103 -25 32 -63 78 -85 103 -22
25 -47 55 -55 67 -8 12 -30 38 -49 58 -18 21 -41 48 -50 60 -8 13 -31 40 -50
60 -18 21 -41 48 -49 60 -9 13 -34 44 -56 69 -23 25 -61 72 -86 103 -25 32
-63 78 -85 103 -22 25 -47 55 -55 67 -8 12 -30 38 -49 58 -18 21 -41 48 -50
60 -8 13 -30 39 -47 58 -18 19 -46 53 -62 75 -16 22 -41 51 -56 64 -14 14 -26
28 -26 33 0 5 -16 27 -36 48 -20 22 -44 50 -53 62 -8 13 -31 40 -50 60 -18 21
-41 48 -49 60 -9 13 -18 25 -21 28 -13 11 -77 87 -96 113 -19 27 -35 33 -48
20z m96 -249 c29 -31 59 -66 67 -78 8 -11 34 -42 58 -68 25 -26 52 -58 60 -70
9 -13 18 -25 22 -28 3 -3 30 -34 60 -70 30 -36 73 -86 95 -111 22 -25 49 -56
59 -70 10 -13 37 -45 60 -70 23 -25 50 -56 60 -70 10 -13 37 -45 60 -70 23
-25 50 -56 60 -70 10 -13 37 -45 60 -70 23 -25 50 -56 60 -70 28 -35 116 -137
155 -181 19 -21 41 -48 50 -60 8 -13 28 -36 43 -53 34 -36 33 -69 -2 -73 -14
-1 -73 -11 -132 -22 -60 -11 -156 -29 -215 -40 -60 -11 -182 -33 -273 -50 -91
-17 -212 -39 -270 -50 -58 -11 -179 -33 -270 -50 -91 -17 -214 -40 -275 -51
-60 -11 -132 -24 -158 -29 -27 -6 -55 -10 -63 -10 -16 0 -19 36 -4 45 6 3 10
17 10 30 0 13 5 27 10 30 6 3 10 17 10 30 0 13 5 27 10 30 6 3 10 17 10 30 0
13 5 27 10 30 6 3 10 14 10 24 0 10 8 33 17 52 10 19 19 43 20 54 2 11 8 24
13 29 6 6 10 20 10 32 0 13 5 26 10 29 6 3 10 17 10 30 0 13 5 27 10 30 6 3
10 14 10 24 0 10 8 33 17 52 10 19 19 43 20 54 2 11 8 24 13 29 6 6 10 20 10
32 0 13 5 26 10 29 6 3 10 17 10 30 0 13 5 27 10 30 6 3 10 17 10 30 0 13 5
27 10 30 6 3 10 14 10 24 0 10 8 33 17 52 10 19 19 43 20 54 2 11 8 24 13 29
6 6 10 20 10 32 0 13 5 26 10 29 6 3 10 17 10 30 0 13 5 27 10 30 6 3 10 17
10 30 0 13 5 27 10 30 6 3 10 13 10 21 0 8 9 34 20 56 11 23 20 50 20 59 0 10
5 21 10 24 6 3 10 17 10 30 0 13 5 27 10 30 6 3 10 17 10 30 0 13 5 27 10 30
6 3 10 14 10 24 0 10 8 33 17 52 10 19 19 43 20 53 3 19 21 46 30 46 2 0 27
-25 56 -56z"/>
<path d="M4970 5861 c0 -11 -4 -23 -10 -26 -5 -3 -10 -17 -10 -30 0 -13 -4
-27 -10 -30 -5 -3 -10 -13 -10 -21 0 -8 -9 -34 -20 -56 -11 -23 -20 -50 -20
-59 0 -10 -4 -21 -10 -24 -5 -3 -10 -17 -10 -30 0 -13 -4 -27 -10 -30 -5 -3
-10 -17 -10 -30 0 -13 -4 -27 -10 -30 -5 -3 -10 -14 -10 -24 0 -10 -8 -33 -17
-52 -10 -19 -19 -43 -20 -54 -2 -11 -8 -24 -13 -29 -6 -6 -10 -20 -10 -32 0
-13 -4 -26 -10 -29 -5 -3 -10 -17 -10 -30 0 -13 -4 -27 -10 -30 -5 -3 -10 -17
-10 -30 0 -13 -4 -27 -10 -30 -5 -3 -10 -12 -10 -19 0 -8 -8 -31 -17 -52 -9
-22 -18 -48 -20 -59 -2 -11 -8 -24 -13 -29 -6 -6 -10 -20 -10 -32 0 -13 -4
-26 -10 -29 -5 -3 -10 -17 -10 -30 0 -13 -4 -27 -10 -30 -5 -3 -10 -14 -10
-24 0 -10 -8 -33 -17 -52 -10 -19 -19 -43 -20 -54 -2 -11 -8 -24 -13 -29 -6
-6 -10 -20 -10 -32 0 -13 -4 -26 -10 -29 -5 -3 -10 -17 -10 -30 0 -13 -4 -27
-10 -30 -5 -3 -10 -17 -10 -30 0 -13 -4 -27 -10 -30 -5 -3 -10 -12 -10 -19 0
-8 -8 -31 -17 -52 -9 -22 -18 -46 -19 -54 -2 -8 -8 -24 -14 -36 -7 -12 -10
-30 -8 -40 4 -23 36 -22 183 7 154 30 191 37 313 59 183 33 560 102 757 139
55 11 156 29 225 42 69 12 131 26 137 32 13 10 -7 39 -102 144 -27 31 -57 65
-65 77 -8 11 -34 42 -58 68 -25 26 -52 58 -60 70 -9 13 -36 44 -60 70 -25 26
-52 58 -60 70 -9 13 -19 25 -22 28 -8 7 -158 183 -190 223 -14 18 -45 53 -69
79 -24 26 -51 58 -59 70 -9 13 -36 44 -60 70 -25 26 -52 58 -60 70 -9 13 -36
44 -60 70 -25 26 -52 58 -60 70 -26 37 -74 88 -84 88 -4 0 -8 -9 -8 -19z m102
-241 c18 -23 50 -60 71 -83 21 -23 59 -67 85 -97 26 -30 66 -75 88 -100 23
-25 55 -61 70 -80 16 -19 53 -61 82 -92 30 -31 62 -67 70 -80 9 -13 40 -48 68
-78 29 -30 65 -71 80 -90 16 -19 41 -48 56 -65 24 -26 38 -65 23 -65 -3 0
-252 -49 -554 -110 -303 -60 -557 -107 -566 -104 -17 7 -20 20 -5 29 6 3 10
17 10 30 0 13 5 27 10 30 6 3 10 17 10 30 0 13 5 27 10 30 6 3 10 17 10 30 0
13 5 27 10 30 6 3 10 17 10 30 0 13 5 27 10 30 6 3 10 17 10 30 0 13 5 27 10
30 6 3 10 17 10 30 0 13 5 27 10 30 6 3 10 17 10 30 0 13 5 27 10 30 6 3 10
17 10 30 0 13 5 27 10 30 6 3 10 17 10 30 0 13 5 27 10 30 6 3 10 14 10 24 0
10 8 33 17 52 10 19 18 40 19 47 2 8 6 21 10 30 4 9 8 23 10 30 1 8 6 21 10
30 4 9 8 23 10 30 1 8 6 21 10 30 4 9 8 23 10 30 1 8 6 21 10 30 4 9 8 23 10
30 1 8 6 21 10 30 4 9 9 26 11 37 2 11 8 24 13 29 6 6 10 20 10 33 0 39 43 30
82 -17z"/>
<path d="M5010 5621 c0 -11 -4 -23 -10 -26 -5 -3 -10 -17 -10 -30 0 -13 -4
-27 -10 -30 -5 -3 -10 -17 -10 -30 0 -13 -4 -27 -10 -30 -5 -3 -10 -17 -10
-30 0 -13 -4 -27 -10 -30 -5 -3 -10 -17 -10 -30 0 -13 -4 -27 -10 -30 -5 -3
-10 -17 -10 -30 0 -13 -4 -27 -10 -30 -5 -3 -10 -17 -10 -30 0 -13 -4 -27 -10
-30 -5 -3 -10 -17 -10 -30 0 -13 -4 -27 -10 -30 -5 -3 -10 -17 -10 -30 0 -13
-4 -27 -10 -30 -5 -3 -10 -17 -10 -30 0 -13 -4 -27 -10 -30 -5 -3 -10 -17 -10
-30 0 -13 -4 -27 -10 -30 -5 -3 -10 -17 -10 -30 0 -13 -4 -27 -10 -30 -5 -3
-10 -17 -10 -30 0 -13 -4 -27 -10 -30 -5 -3 -10 -14 -10 -24 0 -10 -8 -33 -17
-52 -10 -19 -18 -40 -19 -47 -2 -8 -6 -21 -10 -30 -4 -9 -8 -23 -10 -30 -1 -8
-6 -21 -10 -30 -14 -33 -15 -62 -2 -62 28 1 1034 206 1046 214 14 8 13 8 -124
162 -34 38 -74 85 -90 104 -16 19 -53 61 -82 92 -30 31 -61 67 -70 80 -9 13
-40 49 -70 80 -30 31 -62 67 -70 80 -9 13 -40 48 -68 78 -29 30 -65 71 -80 90
-55 67 -64 73 -64 41z m122 -262 c29 -34 87 -98 129 -143 42 -44 89 -97 105
-116 16 -19 39 -45 52 -58 32 -34 29 -58 -10 -66 -18 -3 -76 -15 -128 -26 -52
-12 -113 -25 -135 -29 -22 -5 -90 -19 -152 -32 -62 -13 -116 -20 -120 -16 -4
5 -2 17 5 27 7 11 12 28 12 38 0 10 3 22 7 26 4 3 8 14 9 22 1 9 6 23 10 32 4
9 9 31 11 47 3 17 9 34 14 40 5 5 9 19 9 31 0 13 5 26 10 29 6 3 10 17 10 30
0 13 5 27 10 30 6 3 10 17 10 30 0 13 5 27 10 30 6 3 10 17 10 30 0 13 5 27
10 30 6 3 10 16 10 29 0 24 17 46 36 46 7 0 37 -28 66 -61z"/>
<path d="M5050 5367 c0 -13 -3 -27 -7 -31 -4 -3 -8 -14 -9 -22 -1 -9 -6 -23
-10 -32 -4 -9 -9 -26 -11 -37 -2 -11 -8 -24 -13 -29 -6 -6 -10 -25 -10 -42 0
-18 -4 -36 -10 -39 -5 -3 -10 -17 -10 -30 0 -13 -4 -27 -10 -30 -5 -3 -10 -17
-10 -30 0 -13 -4 -27 -10 -30 -5 -3 -10 -17 -10 -30 0 -13 -4 -27 -10 -30 -15
-9 -12 -55 3 -55 12 0 85 15 342 72 50 11 102 22 118 25 15 3 27 8 27 11 0 8
-92 114 -166 192 -34 36 -75 81 -90 100 -76 92 -104 110 -104 67z"/>
</g>
</svg>
